<svg width="23" height="16" viewBox="0 0 23 16" fill="none" xmlns="http://www.w3.org/2000/svg">
<path d="M22.6148 8.91335L22.6136 8.91458L15.7501 15.6243C15.2359 16.1269 14.4043 16.125 13.8924 15.6199C13.3807 15.1148 13.3827 14.2978 13.8968 13.7951L18.505 9.29032H1.31356C0.588099 9.29032 3.05176e-05 8.71264 3.05176e-05 8C3.05176e-05 7.28735 0.588099 6.70968 1.31356 6.70968H18.5049L13.8969 2.2049C13.3827 1.70219 13.3808 0.88522 13.8925 0.380123C14.4043 -0.125103 15.2361 -0.126845 15.7502 0.375736L22.6136 7.08542L22.6148 7.08664C23.1293 7.59103 23.1276 8.41064 22.6148 8.91335Z" fill="white"/>
<path d="M22.6148 8.91335L22.6136 8.91458L15.7501 15.6243C15.2359 16.1269 14.4043 16.125 13.8924 15.6199C13.3807 15.1148 13.3827 14.2978 13.8968 13.7951L18.505 9.29032H1.31356C0.588099 9.29032 3.05176e-05 8.71264 3.05176e-05 8C3.05176e-05 7.28735 0.588099 6.70968 1.31356 6.70968H18.5049L13.8969 2.2049C13.3827 1.70219 13.3808 0.88522 13.8925 0.380123C14.4043 -0.125103 15.2361 -0.126845 15.7502 0.375736L22.6136 7.08542L22.6148 7.08664C23.1293 7.59103 23.1276 8.41064 22.6148 8.91335Z" fill="white"/>
</svg>
