<svg width="1920" height="1177" viewBox="0 0 1920 1177" fill="none" xmlns="http://www.w3.org/2000/svg">
<rect width="1920" height="1177" fill="#F0F8E7"/>
<path d="M853.309 135.244C853.309 137.584 852.258 138.754 850.155 138.754C848.052 138.754 847 137.584 847 135.244C847 133.488 848.577 131.733 850.155 131.733C851.732 131.733 853.309 133.488 853.309 135.244Z" fill="#E5E5E5"/>
<path d="M920.606 135.244C920.606 136.999 919.029 138.754 917.452 138.754C915.874 138.754 914.297 136.999 914.297 135.244C914.297 133.488 915.349 131.733 917.452 131.733C919.029 131.733 920.606 133.488 920.606 135.244Z" fill="#E5E5E5"/>
<path d="M987.903 135.244C987.903 136.999 986.326 138.754 984.749 138.754C983.171 138.754 981.594 136.999 981.594 135.244C981.594 133.488 983.171 131.733 984.749 131.733C986.326 131.733 987.903 133.488 987.903 135.244Z" fill="#E5E5E5"/>
<path d="M1055.2 135.244C1055.2 136.999 1053.62 138.754 1052.05 138.754C1050.47 138.754 1048.89 136.999 1048.89 135.244C1048.89 133.488 1050.47 131.733 1052.05 131.733C1053.62 131.733 1055.2 133.488 1055.2 135.244Z" fill="#E5E5E5"/>
<path d="M1121.97 135.244C1121.97 136.999 1120.39 138.754 1118.82 138.754C1117.24 138.754 1115.66 136.999 1115.66 135.244C1115.66 133.488 1117.24 131.733 1118.82 131.733C1120.39 131.733 1121.97 133.488 1121.97 135.244Z" fill="#E5E5E5"/>
<path d="M1189.27 135.244C1189.27 136.999 1187.69 138.754 1186.11 138.754C1184.54 138.754 1182.96 137.584 1182.96 135.244C1182.96 133.488 1184.54 131.733 1186.11 131.733C1187.69 131.733 1189.27 133.488 1189.27 135.244Z" fill="#E5E5E5"/>
<path d="M1256.57 135.244C1256.57 136.999 1254.99 138.754 1253.41 138.754C1251.83 138.754 1249.73 137.584 1249.73 135.244C1249.73 133.488 1251.31 131.733 1252.89 131.733C1254.46 131.733 1256.57 133.488 1256.57 135.244Z" fill="#E5E5E5"/>
<path d="M1323.34 135.244C1323.34 136.999 1321.76 138.754 1320.18 138.754C1318.61 138.754 1317.03 136.999 1317.03 135.244C1317.03 133.488 1318.61 131.733 1320.18 131.733C1322.29 131.733 1323.34 133.488 1323.34 135.244Z" fill="#E5E5E5"/>
<path d="M1390.63 135.244C1390.63 136.999 1389.06 138.754 1387.48 138.754C1385.9 138.754 1384.33 136.999 1384.33 135.244C1384.33 133.488 1385.9 131.733 1387.48 131.733C1389.06 131.733 1390.63 133.488 1390.63 135.244Z" fill="#E5E5E5"/>
<path d="M1457.93 135.244C1457.93 136.999 1456.35 138.754 1454.78 138.754C1453.2 138.754 1451.62 136.999 1451.62 135.244C1451.62 133.488 1453.2 131.733 1454.78 131.733C1456.35 131.733 1457.93 133.488 1457.93 135.244Z" fill="#E5E5E5"/>
<path d="M1525.23 135.244C1525.23 136.999 1523.65 138.754 1522.07 138.754C1520.5 138.754 1518.92 136.999 1518.92 135.244C1518.92 133.488 1520.5 131.733 1522.07 131.733C1523.65 131.733 1525.23 133.488 1525.23 135.244Z" fill="#E5E5E5"/>
<path d="M1592 135.244C1592 136.999 1590.42 138.754 1588.85 138.754C1587.27 138.754 1585.69 136.999 1585.69 135.244C1585.69 133.488 1587.27 131.733 1588.85 131.733C1590.95 131.733 1592 133.488 1592 135.244Z" fill="#E5E5E5"/>
<path d="M853.309 210.144C853.309 211.9 852.258 213.655 850.155 213.655C848.052 213.655 847 211.9 847 210.144C847 208.389 848.577 206.633 850.155 206.633C851.732 206.633 853.309 207.804 853.309 210.144Z" fill="#E5E5E5"/>
<path d="M920.606 210.144C920.606 211.9 919.029 213.655 917.452 213.655C915.874 213.655 914.297 211.9 914.297 210.144C914.297 208.389 915.874 206.633 917.452 206.633C919.029 206.633 920.606 207.804 920.606 210.144Z" fill="#E5E5E5"/>
<path d="M987.903 210.144C987.903 211.9 986.326 213.655 984.749 213.655C983.171 213.655 981.594 211.9 981.594 210.144C981.594 208.389 983.171 206.633 984.749 206.633C986.326 206.633 987.903 207.804 987.903 210.144Z" fill="#E5E5E5"/>
<path d="M1055.2 210.144C1055.2 211.9 1053.62 213.655 1052.05 213.655C1050.47 213.655 1048.89 211.9 1048.89 210.144C1048.89 208.389 1050.47 206.633 1052.05 206.633C1053.62 206.633 1055.2 207.804 1055.2 210.144Z" fill="#E5E5E5"/>
<path d="M1121.97 210.144C1121.97 211.9 1120.39 213.655 1118.82 213.655C1117.24 213.655 1115.66 211.9 1115.66 210.144C1115.66 208.389 1117.24 206.633 1118.82 206.633C1120.39 206.633 1121.97 207.804 1121.97 210.144Z" fill="#E5E5E5"/>
<path d="M1189.27 210.144C1189.27 211.9 1187.69 213.655 1186.11 213.655C1184.54 213.655 1182.96 211.9 1182.96 210.144C1182.96 208.389 1184.54 206.633 1186.11 206.633C1187.69 206.633 1189.27 207.804 1189.27 210.144Z" fill="#E5E5E5"/>
<path d="M1256.57 210.144C1256.57 211.9 1254.99 213.655 1253.41 213.655C1251.83 213.655 1250.26 211.9 1250.26 210.144C1250.26 208.389 1251.83 206.633 1253.41 206.633C1254.99 206.633 1256.57 207.804 1256.57 210.144Z" fill="#E5E5E5"/>
<path d="M1323.34 210.144C1323.34 211.9 1321.76 213.655 1320.18 213.655C1318.61 213.655 1317.03 211.9 1317.03 210.144C1317.03 208.389 1318.61 206.633 1320.18 206.633C1322.29 206.633 1323.34 207.804 1323.34 210.144Z" fill="#E5E5E5"/>
<path d="M1390.63 210.144C1390.63 211.9 1389.06 213.655 1387.48 213.655C1385.9 213.655 1384.33 211.9 1384.33 210.144C1384.33 208.389 1385.9 206.633 1387.48 206.633C1389.06 206.633 1390.63 207.804 1390.63 210.144Z" fill="#E5E5E5"/>
<path d="M1457.93 210.144C1457.93 211.9 1456.35 213.655 1454.78 213.655C1453.2 213.655 1451.62 211.9 1451.62 210.144C1451.62 208.389 1453.2 206.633 1454.78 206.633C1456.35 206.633 1457.93 207.804 1457.93 210.144Z" fill="#E5E5E5"/>
<path d="M1525.23 210.144C1525.23 211.9 1523.65 213.655 1522.07 213.655C1520.5 213.655 1518.92 211.9 1518.92 210.144C1518.92 208.389 1520.5 206.633 1522.07 206.633C1523.65 206.633 1525.23 207.804 1525.23 210.144Z" fill="#E5E5E5"/>
<path d="M1592 210.144C1592 211.9 1590.42 213.655 1588.85 213.655C1587.27 213.655 1585.69 211.9 1585.69 210.144C1585.69 208.389 1587.27 206.633 1588.85 206.633C1590.95 206.633 1592 207.804 1592 210.144Z" fill="#E5E5E5"/>
<path d="M853.309 285.045C853.309 286.801 851.732 288.556 850.155 288.556C848.577 288.556 847 286.801 847 285.045C847 283.29 848.577 281.534 850.155 281.534C851.732 281.534 853.309 282.705 853.309 285.045Z" fill="#E5E5E5"/>
<path d="M920.606 285.044C920.606 286.8 919.029 288.555 917.452 288.555C915.874 288.555 914.297 286.8 914.297 285.044C914.297 283.289 915.874 281.533 917.452 281.533C919.029 280.948 920.606 282.703 920.606 285.044Z" fill="#E5E5E5"/>
<path d="M987.903 285.044C987.903 286.8 986.326 288.555 984.749 288.555C983.171 288.555 981.594 286.8 981.594 285.044C981.594 283.289 983.171 281.533 984.749 281.533C986.326 280.948 987.903 282.703 987.903 285.044Z" fill="#E5E5E5"/>
<path d="M1055.2 285.044C1055.2 286.8 1053.62 288.555 1052.05 288.555C1050.47 288.555 1048.89 286.8 1048.89 285.044C1048.89 283.289 1050.47 281.533 1052.05 281.533C1053.62 280.948 1055.2 282.703 1055.2 285.044Z" fill="#E5E5E5"/>
<path d="M1121.97 285.044C1121.97 286.8 1120.39 288.555 1118.82 288.555C1117.24 288.555 1115.66 286.8 1115.66 285.044C1115.66 283.289 1117.24 281.533 1118.82 281.533C1120.39 280.948 1121.97 282.703 1121.97 285.044Z" fill="#E5E5E5"/>
<path d="M1189.27 285.045C1189.27 286.801 1187.69 288.556 1186.11 288.556C1184.54 288.556 1182.96 286.801 1182.96 285.045C1182.96 283.29 1184.54 281.534 1186.11 281.534C1187.69 281.534 1189.27 282.705 1189.27 285.045Z" fill="#E5E5E5"/>
<path d="M1256.57 285.045C1256.57 286.801 1254.99 288.556 1253.41 288.556C1251.83 288.556 1250.26 286.801 1250.26 285.045C1250.26 283.29 1251.83 281.534 1253.41 281.534C1254.99 281.534 1256.57 282.705 1256.57 285.045Z" fill="#E5E5E5"/>
<path d="M1323.34 285.044C1323.34 286.8 1321.76 288.555 1320.18 288.555C1318.61 288.555 1317.03 286.8 1317.03 285.044C1317.03 283.289 1318.61 281.533 1320.18 281.533C1322.29 280.948 1323.34 282.703 1323.34 285.044Z" fill="#E5E5E5"/>
<path d="M1390.63 285.044C1390.63 286.8 1389.06 288.555 1387.48 288.555C1385.9 288.555 1384.33 286.8 1384.33 285.044C1384.33 283.289 1385.9 281.533 1387.48 281.533C1389.06 280.948 1390.63 282.703 1390.63 285.044Z" fill="#E5E5E5"/>
<path d="M1457.93 285.044C1457.93 286.8 1456.35 288.555 1454.78 288.555C1453.2 288.555 1451.62 286.8 1451.62 285.044C1451.62 283.289 1453.2 281.533 1454.78 281.533C1456.35 280.948 1457.93 282.703 1457.93 285.044Z" fill="#E5E5E5"/>
<path d="M1525.23 285.044C1525.23 286.8 1523.65 288.555 1522.07 288.555C1520.5 288.555 1518.92 286.8 1518.92 285.044C1518.92 283.289 1520.5 281.533 1522.07 281.533C1523.65 280.948 1525.23 282.703 1525.23 285.044Z" fill="#E5E5E5"/>
<path d="M1592 285.044C1592 286.8 1590.42 288.555 1588.85 288.555C1587.27 288.555 1585.69 286.8 1585.69 285.044C1585.69 283.289 1587.27 281.533 1588.85 281.533C1590.95 280.948 1592 282.703 1592 285.044Z" fill="#E5E5E5"/>
<path d="M853.309 359.36C853.309 361.116 851.732 362.871 850.155 362.871C848.577 362.871 847 361.701 847 359.36C847 357.605 848.577 355.849 850.155 355.849C851.732 355.849 853.309 357.605 853.309 359.36Z" fill="#E5E5E5"/>
<path d="M920.606 359.36C920.606 361.116 919.029 362.871 917.452 362.871C915.874 362.871 914.297 361.116 914.297 359.36C914.297 357.605 915.874 355.849 917.452 355.849C919.029 355.849 920.606 357.605 920.606 359.36Z" fill="#E5E5E5"/>
<path d="M987.903 359.36C987.903 361.116 986.326 362.871 984.749 362.871C983.171 362.871 981.594 361.116 981.594 359.36C981.594 357.605 983.171 355.849 984.749 355.849C986.326 355.849 987.903 357.605 987.903 359.36Z" fill="#E5E5E5"/>
<path d="M1055.2 359.36C1055.2 361.116 1053.62 362.871 1052.05 362.871C1050.47 362.871 1048.89 361.116 1048.89 359.36C1048.89 357.605 1050.47 355.849 1052.05 355.849C1053.62 355.849 1055.2 357.605 1055.2 359.36Z" fill="#E5E5E5"/>
<path d="M1121.97 359.36C1121.97 361.116 1120.39 362.871 1118.82 362.871C1117.24 362.871 1115.66 361.116 1115.66 359.36C1115.66 357.605 1117.24 355.849 1118.82 355.849C1120.39 355.849 1121.97 357.605 1121.97 359.36Z" fill="#E5E5E5"/>
<path d="M1189.27 359.36C1189.27 361.116 1187.69 362.871 1186.11 362.871C1184.54 362.871 1182.96 361.116 1182.96 359.36C1182.96 357.605 1184.54 355.849 1186.11 355.849C1187.69 355.849 1189.27 357.605 1189.27 359.36Z" fill="#E5E5E5"/>
<path d="M1256.57 359.36C1256.57 361.116 1254.99 362.871 1253.41 362.871C1251.83 362.871 1250.26 361.116 1250.26 359.36C1250.26 357.605 1251.83 355.849 1253.41 355.849C1254.99 355.849 1256.57 357.605 1256.57 359.36Z" fill="#E5E5E5"/>
<path d="M1323.34 359.36C1323.34 361.116 1321.76 362.871 1320.18 362.871C1318.61 362.871 1317.03 361.116 1317.03 359.36C1317.03 357.605 1318.61 355.849 1320.18 355.849C1322.29 355.849 1323.34 357.605 1323.34 359.36Z" fill="#E5E5E5"/>
<path d="M1390.63 359.36C1390.63 361.116 1389.06 362.871 1387.48 362.871C1385.9 362.871 1384.33 361.116 1384.33 359.36C1384.33 357.605 1385.9 355.849 1387.48 355.849C1389.06 355.849 1390.63 357.605 1390.63 359.36Z" fill="#E5E5E5"/>
<path d="M1457.93 359.36C1457.93 361.116 1456.35 362.871 1454.78 362.871C1453.2 362.871 1451.62 361.116 1451.62 359.36C1451.62 357.605 1453.2 355.849 1454.78 355.849C1456.35 355.849 1457.93 357.605 1457.93 359.36Z" fill="#E5E5E5"/>
<path d="M1525.23 359.36C1525.23 361.116 1523.65 362.871 1522.07 362.871C1520.5 362.871 1518.92 361.116 1518.92 359.36C1518.92 357.605 1520.5 355.849 1522.07 355.849C1523.65 355.849 1525.23 357.605 1525.23 359.36Z" fill="#E5E5E5"/>
<path d="M1592 359.36C1592 361.116 1590.42 362.871 1588.85 362.871C1587.27 362.871 1585.69 361.116 1585.69 359.36C1585.69 357.605 1587.27 355.849 1588.85 355.849C1590.95 355.849 1592 357.605 1592 359.36Z" fill="#E5E5E5"/>
<path d="M853.309 434.261C853.309 436.017 851.732 437.772 850.155 437.772C848.577 437.772 847 436.017 847 434.261C847 432.506 848.577 430.75 850.155 430.75C851.732 430.75 853.309 432.506 853.309 434.261Z" fill="#E5E5E5"/>
<path d="M920.606 434.261C920.606 436.017 919.029 437.772 917.452 437.772C915.874 437.772 914.297 436.017 914.297 434.261C914.297 432.506 915.874 430.75 917.452 430.75C919.029 430.75 920.606 432.506 920.606 434.261Z" fill="#E5E5E5"/>
<path d="M987.903 434.261C987.903 436.017 986.326 437.772 984.749 437.772C983.171 437.772 981.594 436.017 981.594 434.261C981.594 432.506 983.171 430.75 984.749 430.75C986.326 430.75 987.903 432.506 987.903 434.261Z" fill="#E5E5E5"/>
<path d="M1055.2 434.261C1055.2 436.017 1053.62 437.772 1052.05 437.772C1050.47 437.772 1048.89 436.017 1048.89 434.261C1048.89 432.506 1050.47 430.75 1052.05 430.75C1053.62 430.75 1055.2 432.506 1055.2 434.261Z" fill="#E5E5E5"/>
<path d="M1121.97 434.261C1121.97 436.017 1120.39 437.772 1118.82 437.772C1117.24 437.772 1115.66 436.017 1115.66 434.261C1115.66 432.506 1117.24 430.75 1118.82 430.75C1120.39 430.75 1121.97 432.506 1121.97 434.261Z" fill="#E5E5E5"/>
<path d="M1189.27 434.261C1189.27 436.017 1187.69 437.772 1186.11 437.772C1184.54 437.772 1182.96 436.017 1182.96 434.261C1182.96 432.506 1184.54 430.75 1186.11 430.75C1187.69 430.75 1189.27 432.506 1189.27 434.261Z" fill="#E5E5E5"/>
<path d="M1256.57 434.261C1256.57 436.017 1254.99 437.772 1253.41 437.772C1251.83 437.772 1250.26 436.017 1250.26 434.261C1250.26 432.506 1251.83 430.75 1253.41 430.75C1254.99 430.75 1256.57 432.506 1256.57 434.261Z" fill="#E5E5E5"/>
<path d="M1323.34 434.261C1323.34 436.017 1321.76 437.772 1320.18 437.772C1318.61 437.772 1317.03 436.017 1317.03 434.261C1317.03 432.506 1318.61 430.75 1320.18 430.75C1322.29 430.75 1323.34 432.506 1323.34 434.261Z" fill="#E5E5E5"/>
<path d="M1390.63 434.261C1390.63 436.017 1389.06 437.772 1387.48 437.772C1385.9 437.772 1384.33 436.017 1384.33 434.261C1384.33 432.506 1385.9 430.75 1387.48 430.75C1389.06 430.75 1390.63 432.506 1390.63 434.261Z" fill="#E5E5E5"/>
<path d="M1457.93 434.261C1457.93 436.017 1456.35 437.772 1454.78 437.772C1453.2 437.772 1451.62 436.017 1451.62 434.261C1451.62 432.506 1453.2 430.75 1454.78 430.75C1456.35 430.75 1457.93 432.506 1457.93 434.261Z" fill="#E5E5E5"/>
<path d="M1525.23 434.261C1525.23 436.017 1523.65 437.772 1522.07 437.772C1520.5 437.772 1518.92 436.017 1518.92 434.261C1518.92 432.506 1520.5 430.75 1522.07 430.75C1523.65 430.75 1525.23 432.506 1525.23 434.261Z" fill="#E5E5E5"/>
<path d="M1592 434.261C1592 436.017 1590.42 437.772 1588.85 437.772C1587.27 437.772 1585.69 436.017 1585.69 434.261C1585.69 432.506 1587.27 430.75 1588.85 430.75C1590.95 430.75 1592 432.506 1592 434.261Z" fill="#E5E5E5"/>
<path d="M853.309 509.161C853.309 510.916 851.732 512.672 850.155 512.672C848.577 512.672 847 510.916 847 509.161C847 507.405 848.577 505.65 850.155 505.65C851.732 505.65 853.309 506.82 853.309 509.161Z" fill="#E5E5E5"/>
<path d="M920.606 509.161C920.606 510.916 919.029 512.672 917.452 512.672C915.874 512.672 914.297 510.916 914.297 509.161C914.297 507.405 915.874 505.65 917.452 505.65C919.029 505.65 920.606 506.82 920.606 509.161Z" fill="#E5E5E5"/>
<path d="M987.903 509.161C987.903 510.916 986.326 512.672 984.749 512.672C983.171 512.672 981.594 510.916 981.594 509.161C981.594 507.405 983.171 505.65 984.749 505.65C986.326 505.65 987.903 506.82 987.903 509.161Z" fill="#E5E5E5"/>
<path d="M1055.2 509.161C1055.2 510.916 1053.62 512.672 1052.05 512.672C1050.47 512.672 1048.89 510.916 1048.89 509.161C1048.89 507.405 1050.47 505.65 1052.05 505.65C1053.62 505.65 1055.2 506.82 1055.2 509.161Z" fill="#E5E5E5"/>
<path d="M1121.97 509.161C1121.97 510.916 1120.39 512.672 1118.82 512.672C1117.24 512.672 1115.66 510.916 1115.66 509.161C1115.66 507.405 1117.24 505.65 1118.82 505.65C1120.39 505.65 1121.97 506.82 1121.97 509.161Z" fill="#E5E5E5"/>
<path d="M1189.27 509.161C1189.27 510.916 1187.69 512.672 1186.11 512.672C1184.54 512.672 1182.96 510.916 1182.96 509.161C1182.96 507.405 1184.54 505.65 1186.11 505.65C1187.69 505.65 1189.27 506.82 1189.27 509.161Z" fill="#E5E5E5"/>
<path d="M1256.57 509.161C1256.57 510.916 1254.99 512.672 1253.41 512.672C1251.83 512.672 1250.26 510.916 1250.26 509.161C1250.26 507.405 1251.83 505.65 1253.41 505.65C1254.99 505.65 1256.57 506.82 1256.57 509.161Z" fill="#E5E5E5"/>
<path d="M1323.34 509.161C1323.34 510.916 1321.76 512.672 1320.18 512.672C1318.61 512.672 1317.03 510.916 1317.03 509.161C1317.03 507.405 1318.61 505.65 1320.18 505.65C1322.29 505.65 1323.34 506.82 1323.34 509.161Z" fill="#E5E5E5"/>
<path d="M1390.63 509.161C1390.63 510.916 1389.06 512.672 1387.48 512.672C1385.9 512.672 1384.33 510.916 1384.33 509.161C1384.33 507.405 1385.9 505.65 1387.48 505.65C1389.06 505.65 1390.63 506.82 1390.63 509.161Z" fill="#E5E5E5"/>
<path d="M1457.93 509.161C1457.93 510.916 1456.35 512.672 1454.78 512.672C1453.2 512.672 1451.62 510.916 1451.62 509.161C1451.62 507.405 1453.2 505.65 1454.78 505.65C1456.35 505.65 1457.93 506.82 1457.93 509.161Z" fill="#E5E5E5"/>
<path d="M1525.23 509.161C1525.23 510.916 1523.65 512.672 1522.07 512.672C1520.5 512.672 1518.92 510.916 1518.92 509.161C1518.92 507.405 1520.5 505.65 1522.07 505.65C1523.65 505.65 1525.23 506.82 1525.23 509.161Z" fill="#E5E5E5"/>
<path d="M1592 509.161C1592 510.916 1590.42 512.672 1588.85 512.672C1587.27 512.672 1585.69 510.916 1585.69 509.161C1585.69 507.405 1587.27 505.65 1588.85 505.65C1590.95 505.65 1592 506.82 1592 509.161Z" fill="#E5E5E5"/>
<path d="M853.309 584.062C853.309 585.817 851.732 587.573 850.155 587.573C848.577 587.573 847 585.817 847 584.062C847 582.306 848.577 580.55 850.155 580.55C851.732 580.55 853.309 581.721 853.309 584.062Z" fill="#E5E5E5"/>
<path d="M920.606 584.062C920.606 585.818 919.029 587.573 917.452 587.573C915.874 587.573 914.297 585.818 914.297 584.062C914.297 582.307 915.874 580.551 917.452 580.551C919.029 579.966 920.606 581.721 920.606 584.062Z" fill="#E5E5E5"/>
<path d="M987.903 584.062C987.903 585.818 986.326 587.573 984.749 587.573C983.171 587.573 981.594 585.818 981.594 584.062C981.594 582.307 983.171 580.551 984.749 580.551C986.326 579.966 987.903 581.721 987.903 584.062Z" fill="#E5E5E5"/>
<path d="M1055.2 584.062C1055.2 585.818 1053.62 587.573 1052.05 587.573C1050.47 587.573 1048.89 585.818 1048.89 584.062C1048.89 582.307 1050.47 580.551 1052.05 580.551C1053.62 579.966 1055.2 581.721 1055.2 584.062Z" fill="#E5E5E5"/>
<path d="M1121.97 584.062C1121.97 585.818 1120.39 587.573 1118.82 587.573C1117.24 587.573 1115.66 585.818 1115.66 584.062C1115.66 582.307 1117.24 580.551 1118.82 580.551C1120.39 579.966 1121.97 581.721 1121.97 584.062Z" fill="#E5E5E5"/>
<path d="M1189.27 584.062C1189.27 585.817 1187.69 587.573 1186.11 587.573C1184.54 587.573 1182.96 585.817 1182.96 584.062C1182.96 582.306 1184.54 580.55 1186.11 580.55C1187.69 580.55 1189.27 581.721 1189.27 584.062Z" fill="#E5E5E5"/>
<path d="M1256.57 584.062C1256.57 585.817 1254.99 587.573 1253.41 587.573C1251.83 587.573 1250.26 585.817 1250.26 584.062C1250.26 582.306 1251.83 580.55 1253.41 580.55C1254.99 580.55 1256.57 581.721 1256.57 584.062Z" fill="#E5E5E5"/>
<path d="M1323.34 584.062C1323.34 585.818 1321.76 587.573 1320.18 587.573C1318.61 587.573 1317.03 585.818 1317.03 584.062C1317.03 582.307 1318.61 580.551 1320.18 580.551C1322.29 579.966 1323.34 581.721 1323.34 584.062Z" fill="#E5E5E5"/>
<path d="M1390.63 584.062C1390.63 585.818 1389.06 587.573 1387.48 587.573C1385.9 587.573 1384.33 585.818 1384.33 584.062C1384.33 582.307 1385.9 580.551 1387.48 580.551C1389.06 579.966 1390.63 581.721 1390.63 584.062Z" fill="#E5E5E5"/>
<path d="M1457.93 584.062C1457.93 585.818 1456.35 587.573 1454.78 587.573C1453.2 587.573 1451.62 585.818 1451.62 584.062C1451.62 582.307 1453.2 580.551 1454.78 580.551C1456.35 579.966 1457.93 581.721 1457.93 584.062Z" fill="#E5E5E5"/>
<path d="M1525.23 584.062C1525.23 585.818 1523.65 587.573 1522.07 587.573C1520.5 587.573 1518.92 585.818 1518.92 584.062C1518.92 582.307 1520.5 580.551 1522.07 580.551C1523.65 579.966 1525.23 581.721 1525.23 584.062Z" fill="#E5E5E5"/>
<path d="M1592 584.062C1592 585.818 1590.42 587.573 1588.85 587.573C1587.27 587.573 1585.69 585.818 1585.69 584.062C1585.69 582.307 1587.27 580.551 1588.85 580.551C1590.95 579.966 1592 581.721 1592 584.062Z" fill="#E5E5E5"/>
<path d="M853.309 658.377C853.309 660.132 851.732 661.888 850.155 661.888C848.577 661.888 847 660.717 847 658.377C847 656.621 848.577 654.866 850.155 654.866C851.732 654.866 853.309 656.621 853.309 658.377Z" fill="#E5E5E5"/>
<path d="M920.606 658.377C920.606 660.132 919.029 661.888 917.452 661.888C915.874 661.888 914.297 660.132 914.297 658.377C914.297 656.621 915.874 654.866 917.452 654.866C919.029 654.866 920.606 656.621 920.606 658.377Z" fill="#E5E5E5"/>
<path d="M987.903 658.377C987.903 660.132 986.326 661.888 984.749 661.888C983.171 661.888 981.594 660.132 981.594 658.377C981.594 656.621 983.171 654.866 984.749 654.866C986.326 654.866 987.903 656.621 987.903 658.377Z" fill="#E5E5E5"/>
<path d="M1055.2 658.377C1055.2 660.132 1053.62 661.888 1052.05 661.888C1050.47 661.888 1048.89 660.132 1048.89 658.377C1048.89 656.621 1050.47 654.866 1052.05 654.866C1053.62 654.866 1055.2 656.621 1055.2 658.377Z" fill="#E5E5E5"/>
<path d="M1121.97 658.377C1121.97 660.132 1120.39 661.888 1118.82 661.888C1117.24 661.888 1115.66 660.132 1115.66 658.377C1115.66 656.621 1117.24 654.866 1118.82 654.866C1120.39 654.866 1121.97 656.621 1121.97 658.377Z" fill="#E5E5E5"/>
<path d="M1189.27 658.377C1189.27 660.132 1187.69 661.888 1186.11 661.888C1184.54 661.888 1182.96 660.132 1182.96 658.377C1182.96 656.621 1184.54 654.866 1186.11 654.866C1187.69 654.866 1189.27 656.621 1189.27 658.377Z" fill="#E5E5E5"/>
<path d="M1256.57 658.377C1256.57 660.132 1254.99 661.888 1253.41 661.888C1251.83 661.888 1250.26 660.132 1250.26 658.377C1250.26 656.621 1251.83 654.866 1253.41 654.866C1254.99 654.866 1256.57 656.621 1256.57 658.377Z" fill="#E5E5E5"/>
<path d="M1323.34 658.377C1323.34 660.132 1321.76 661.888 1320.18 661.888C1318.61 661.888 1317.03 660.132 1317.03 658.377C1317.03 656.621 1318.61 654.866 1320.18 654.866C1322.29 654.866 1323.34 656.621 1323.34 658.377Z" fill="#E5E5E5"/>
<path d="M1390.63 658.377C1390.63 660.132 1389.06 661.888 1387.48 661.888C1385.9 661.888 1384.33 660.132 1384.33 658.377C1384.33 656.621 1385.9 654.866 1387.48 654.866C1389.06 654.866 1390.63 656.621 1390.63 658.377Z" fill="#E5E5E5"/>
<path d="M1457.93 658.377C1457.93 660.132 1456.35 661.888 1454.78 661.888C1453.2 661.888 1451.62 660.132 1451.62 658.377C1451.62 656.621 1453.2 654.866 1454.78 654.866C1456.35 654.866 1457.93 656.621 1457.93 658.377Z" fill="#E5E5E5"/>
<path d="M1525.23 658.377C1525.23 660.132 1523.65 661.888 1522.07 661.888C1520.5 661.888 1518.92 660.132 1518.92 658.377C1518.92 656.621 1520.5 654.866 1522.07 654.866C1523.65 654.866 1525.23 656.621 1525.23 658.377Z" fill="#E5E5E5"/>
<path d="M1592 658.377C1592 660.132 1590.42 661.888 1588.85 661.888C1587.27 661.888 1585.69 660.132 1585.69 658.377C1585.69 656.621 1587.27 654.866 1588.85 654.866C1590.95 654.866 1592 656.621 1592 658.377Z" fill="#E5E5E5"/>
<path d="M853.309 733.278C853.309 735.033 851.732 736.789 850.155 736.789C848.577 736.789 847 735.033 847 733.278C847 731.522 848.577 729.767 850.155 729.767C851.732 729.767 853.309 731.522 853.309 733.278Z" fill="#E5E5E5"/>
<path d="M920.606 733.278C920.606 735.033 919.029 736.789 917.452 736.789C915.874 736.789 914.297 735.033 914.297 733.278C914.297 731.522 915.874 729.767 917.452 729.767C919.029 729.767 920.606 731.522 920.606 733.278Z" fill="#E5E5E5"/>
<path d="M987.903 733.278C987.903 735.033 986.326 736.789 984.749 736.789C983.171 736.789 981.594 735.033 981.594 733.278C981.594 731.522 983.171 729.767 984.749 729.767C986.326 729.767 987.903 731.522 987.903 733.278Z" fill="#E5E5E5"/>
<path d="M1055.2 733.278C1055.2 735.033 1053.62 736.789 1052.05 736.789C1050.47 736.789 1048.89 735.033 1048.89 733.278C1048.89 731.522 1050.47 729.767 1052.05 729.767C1053.62 729.767 1055.2 731.522 1055.2 733.278Z" fill="#E5E5E5"/>
<path d="M1121.97 733.278C1121.97 735.033 1120.39 736.789 1118.82 736.789C1117.24 736.789 1115.66 735.033 1115.66 733.278C1115.66 731.522 1117.24 729.767 1118.82 729.767C1120.39 729.767 1121.97 731.522 1121.97 733.278Z" fill="#E5E5E5"/>
<path d="M1189.27 733.278C1189.27 735.033 1187.69 736.789 1186.11 736.789C1184.54 736.789 1182.96 735.033 1182.96 733.278C1182.96 731.522 1184.54 729.767 1186.11 729.767C1187.69 729.767 1189.27 731.522 1189.27 733.278Z" fill="#E5E5E5"/>
<path d="M1256.57 733.278C1256.57 735.033 1254.99 736.789 1253.41 736.789C1251.83 736.789 1250.26 735.033 1250.26 733.278C1250.26 731.522 1251.83 729.767 1253.41 729.767C1254.99 729.767 1256.57 731.522 1256.57 733.278Z" fill="#E5E5E5"/>
<path d="M1323.34 733.278C1323.34 735.033 1321.76 736.789 1320.18 736.789C1318.61 736.789 1317.03 735.033 1317.03 733.278C1317.03 731.522 1318.61 729.767 1320.18 729.767C1322.29 729.767 1323.34 731.522 1323.34 733.278Z" fill="#E5E5E5"/>
<path d="M1390.63 733.278C1390.63 735.033 1389.06 736.789 1387.48 736.789C1385.9 736.789 1384.33 735.033 1384.33 733.278C1384.33 731.522 1385.9 729.767 1387.48 729.767C1389.06 729.767 1390.63 731.522 1390.63 733.278Z" fill="#E5E5E5"/>
<path d="M1457.93 733.278C1457.93 735.033 1456.35 736.789 1454.78 736.789C1453.2 736.789 1451.62 735.033 1451.62 733.278C1451.62 731.522 1453.2 729.767 1454.78 729.767C1456.35 729.767 1457.93 731.522 1457.93 733.278Z" fill="#E5E5E5"/>
<path d="M1525.23 733.278C1525.23 735.033 1523.65 736.789 1522.07 736.789C1520.5 736.789 1518.92 735.033 1518.92 733.278C1518.92 731.522 1520.5 729.767 1522.07 729.767C1523.65 729.767 1525.23 731.522 1525.23 733.278Z" fill="#E5E5E5"/>
<path d="M1592 733.278C1592 735.033 1590.42 736.789 1588.85 736.789C1587.27 736.789 1585.69 735.033 1585.69 733.278C1585.69 731.522 1587.27 729.767 1588.85 729.767C1590.95 729.767 1592 731.522 1592 733.278Z" fill="#E5E5E5"/>
<path d="M853.309 808.178C853.309 809.934 851.732 811.689 850.155 811.689C848.577 811.689 847 809.934 847 808.178C847 806.423 848.577 804.667 850.155 804.667C851.732 804.667 853.309 805.837 853.309 808.178Z" fill="#E5E5E5"/>
<path d="M920.606 808.178C920.606 809.934 919.029 811.689 917.452 811.689C915.874 811.689 914.297 809.934 914.297 808.178C914.297 806.423 915.874 804.667 917.452 804.667C919.029 804.667 920.606 805.837 920.606 808.178Z" fill="#E5E5E5"/>
<path d="M987.903 808.178C987.903 809.934 986.326 811.689 984.749 811.689C983.171 811.689 981.594 809.934 981.594 808.178C981.594 806.423 983.171 804.667 984.749 804.667C986.326 804.667 987.903 805.837 987.903 808.178Z" fill="#E5E5E5"/>
<path d="M1055.2 808.178C1055.2 809.934 1053.62 811.689 1052.05 811.689C1050.47 811.689 1048.89 809.934 1048.89 808.178C1048.89 806.423 1050.47 804.667 1052.05 804.667C1053.62 804.667 1055.2 805.837 1055.2 808.178Z" fill="#E5E5E5"/>
<path d="M1121.97 808.178C1121.97 809.934 1120.39 811.689 1118.82 811.689C1117.24 811.689 1115.66 809.934 1115.66 808.178C1115.66 806.423 1117.24 804.667 1118.82 804.667C1120.39 804.667 1121.97 805.837 1121.97 808.178Z" fill="#E5E5E5"/>
<path d="M1189.27 808.178C1189.27 809.934 1187.69 811.689 1186.11 811.689C1184.54 811.689 1182.96 809.934 1182.96 808.178C1182.96 806.423 1184.54 804.667 1186.11 804.667C1187.69 804.667 1189.27 805.837 1189.27 808.178Z" fill="#E5E5E5"/>
<path d="M1256.57 808.178C1256.57 809.934 1254.99 811.689 1253.41 811.689C1251.83 811.689 1250.26 809.934 1250.26 808.178C1250.26 806.423 1251.83 804.667 1253.41 804.667C1254.99 804.667 1256.57 805.837 1256.57 808.178Z" fill="#E5E5E5"/>
<path d="M1323.34 808.178C1323.34 809.934 1321.76 811.689 1320.18 811.689C1318.61 811.689 1317.03 809.934 1317.03 808.178C1317.03 806.423 1318.61 804.667 1320.18 804.667C1322.29 804.667 1323.34 805.837 1323.34 808.178Z" fill="#E5E5E5"/>
<path d="M1390.63 808.178C1390.63 809.934 1389.06 811.689 1387.48 811.689C1385.9 811.689 1384.33 809.934 1384.33 808.178C1384.33 806.423 1385.9 804.667 1387.48 804.667C1389.06 804.667 1390.63 805.837 1390.63 808.178Z" fill="#E5E5E5"/>
<path d="M1457.93 808.178C1457.93 809.934 1456.35 811.689 1454.78 811.689C1453.2 811.689 1451.62 809.934 1451.62 808.178C1451.62 806.423 1453.2 804.667 1454.78 804.667C1456.35 804.667 1457.93 805.837 1457.93 808.178Z" fill="#E5E5E5"/>
<path d="M1525.23 808.178C1525.23 809.934 1523.65 811.689 1522.07 811.689C1520.5 811.689 1518.92 809.934 1518.92 808.178C1518.92 806.423 1520.5 804.667 1522.07 804.667C1523.65 804.667 1525.23 805.837 1525.23 808.178Z" fill="#E5E5E5"/>
<path d="M1592 808.178C1592 809.934 1590.42 811.689 1588.85 811.689C1587.27 811.689 1585.69 809.934 1585.69 808.178C1585.69 806.423 1587.27 804.667 1588.85 804.667C1590.95 804.667 1592 805.837 1592 808.178Z" fill="#E5E5E5"/>
<path d="M853.309 882.494C853.309 884.249 851.732 886.004 850.155 886.004C848.577 886.004 847 884.834 847 882.494C847 880.738 848.577 878.983 850.155 878.983C851.732 878.983 853.309 880.738 853.309 882.494Z" fill="#E5E5E5"/>
<path d="M920.606 882.494C920.606 884.249 919.029 886.004 917.452 886.004C915.874 886.004 914.297 884.249 914.297 882.494C914.297 880.738 915.874 878.983 917.452 878.983C919.029 878.983 920.606 880.738 920.606 882.494Z" fill="#E5E5E5"/>
<path d="M987.903 882.494C987.903 884.249 986.326 886.004 984.749 886.004C983.171 886.004 981.594 884.249 981.594 882.494C981.594 880.738 983.171 878.983 984.749 878.983C986.326 878.983 987.903 880.738 987.903 882.494Z" fill="#E5E5E5"/>
<path d="M1055.2 882.494C1055.2 884.249 1053.62 886.004 1052.05 886.004C1050.47 886.004 1048.89 884.249 1048.89 882.494C1048.89 880.738 1050.47 878.983 1052.05 878.983C1053.62 878.983 1055.2 880.738 1055.2 882.494Z" fill="#E5E5E5"/>
<path d="M1121.97 882.494C1121.97 884.249 1120.39 886.004 1118.82 886.004C1117.24 886.004 1115.66 884.249 1115.66 882.494C1115.66 880.738 1117.24 878.983 1118.82 878.983C1120.39 878.983 1121.97 880.738 1121.97 882.494Z" fill="#E5E5E5"/>
<path d="M1189.27 882.494C1189.27 884.249 1187.69 886.004 1186.11 886.004C1184.54 886.004 1182.96 884.249 1182.96 882.494C1182.96 880.738 1184.54 878.983 1186.11 878.983C1187.69 878.983 1189.27 880.738 1189.27 882.494Z" fill="#E5E5E5"/>
<path d="M1256.57 882.494C1256.57 884.249 1254.99 886.004 1253.41 886.004C1251.83 886.004 1250.26 884.249 1250.26 882.494C1250.26 880.738 1251.83 878.983 1253.41 878.983C1254.99 878.983 1256.57 880.738 1256.57 882.494Z" fill="#E5E5E5"/>
<path d="M1323.34 882.494C1323.34 884.249 1321.76 886.004 1320.18 886.004C1318.61 886.004 1317.03 884.249 1317.03 882.494C1317.03 880.738 1318.61 878.983 1320.18 878.983C1322.29 878.983 1323.34 880.738 1323.34 882.494Z" fill="#E5E5E5"/>
<path d="M1390.63 882.494C1390.63 884.249 1389.06 886.004 1387.48 886.004C1385.9 886.004 1384.33 884.249 1384.33 882.494C1384.33 880.738 1385.9 878.983 1387.48 878.983C1389.06 878.983 1390.63 880.738 1390.63 882.494Z" fill="#E5E5E5"/>
<path d="M1457.93 882.494C1457.93 884.249 1456.35 886.004 1454.78 886.004C1453.2 886.004 1451.62 884.249 1451.62 882.494C1451.62 880.738 1453.2 878.983 1454.78 878.983C1456.35 878.983 1457.93 880.738 1457.93 882.494Z" fill="#E5E5E5"/>
<path d="M1525.23 882.494C1525.23 884.249 1523.65 886.004 1522.07 886.004C1520.5 886.004 1518.92 884.249 1518.92 882.494C1518.92 880.738 1520.5 878.983 1522.07 878.983C1523.65 878.983 1525.23 880.738 1525.23 882.494Z" fill="#E5E5E5"/>
<path d="M1592 882.494C1592 884.249 1590.42 886.004 1588.85 886.004C1587.27 886.004 1585.69 884.249 1585.69 882.494C1585.69 880.738 1587.27 878.983 1588.85 878.983C1590.95 878.983 1592 880.738 1592 882.494Z" fill="#E5E5E5"/>
<path d="M853.309 957.394C853.309 959.15 851.732 960.905 850.155 960.905C848.577 960.905 847 959.735 847 957.394C847 955.639 848.577 953.883 850.155 953.883C851.732 953.883 853.309 955.639 853.309 957.394Z" fill="#E5E5E5"/>
<path d="M920.606 957.394C920.606 959.15 919.029 960.905 917.452 960.905C915.874 960.905 914.297 959.15 914.297 957.394C914.297 955.639 915.874 953.883 917.452 953.883C919.029 953.883 920.606 955.639 920.606 957.394Z" fill="#E5E5E5"/>
<path d="M987.903 957.394C987.903 959.15 986.326 960.905 984.749 960.905C983.171 960.905 981.594 959.15 981.594 957.394C981.594 955.639 983.171 953.883 984.749 953.883C986.326 953.883 987.903 955.639 987.903 957.394Z" fill="#E5E5E5"/>
<path d="M1055.2 957.394C1055.2 959.15 1053.62 960.905 1052.05 960.905C1050.47 960.905 1048.89 959.15 1048.89 957.394C1048.89 955.639 1050.47 953.883 1052.05 953.883C1053.62 953.883 1055.2 955.639 1055.2 957.394Z" fill="#E5E5E5"/>
<path d="M1121.97 957.394C1121.97 959.15 1120.39 960.905 1118.82 960.905C1117.24 960.905 1115.66 959.15 1115.66 957.394C1115.66 955.639 1117.24 953.883 1118.82 953.883C1120.39 953.883 1121.97 955.639 1121.97 957.394Z" fill="#E5E5E5"/>
<path d="M1189.27 957.394C1189.27 959.15 1187.69 960.905 1186.11 960.905C1184.54 960.905 1182.96 959.15 1182.96 957.394C1182.96 955.639 1184.54 953.883 1186.11 953.883C1187.69 953.883 1189.27 955.639 1189.27 957.394Z" fill="#E5E5E5"/>
<path d="M1256.57 957.394C1256.57 959.15 1254.99 960.905 1253.41 960.905C1251.83 960.905 1250.26 959.15 1250.26 957.394C1250.26 955.639 1251.83 953.883 1253.41 953.883C1254.99 953.883 1256.57 955.639 1256.57 957.394Z" fill="#E5E5E5"/>
<path d="M1323.34 957.394C1323.34 959.15 1321.76 960.905 1320.18 960.905C1318.61 960.905 1317.03 959.15 1317.03 957.394C1317.03 955.639 1318.61 953.883 1320.18 953.883C1322.29 953.883 1323.34 955.639 1323.34 957.394Z" fill="#E5E5E5"/>
<path d="M1390.63 957.394C1390.63 959.15 1389.06 960.905 1387.48 960.905C1385.9 960.905 1384.33 959.15 1384.33 957.394C1384.33 955.639 1385.9 953.883 1387.48 953.883C1389.06 953.883 1390.63 955.639 1390.63 957.394Z" fill="#E5E5E5"/>
<path d="M1457.93 957.394C1457.93 959.15 1456.35 960.905 1454.78 960.905C1453.2 960.905 1451.62 959.15 1451.62 957.394C1451.62 955.639 1453.2 953.883 1454.78 953.883C1456.35 953.883 1457.93 955.639 1457.93 957.394Z" fill="#E5E5E5"/>
<path d="M1525.23 957.394C1525.23 959.15 1523.65 960.905 1522.07 960.905C1520.5 960.905 1518.92 959.15 1518.92 957.394C1518.92 955.639 1520.5 953.883 1522.07 953.883C1523.65 953.883 1525.23 955.639 1525.23 957.394Z" fill="#E5E5E5"/>
<path d="M1592 957.394C1592 959.15 1590.42 960.905 1588.85 960.905C1587.27 960.905 1585.69 959.15 1585.69 957.394C1585.69 955.639 1587.27 953.883 1588.85 953.883C1590.95 953.883 1592 955.639 1592 957.394Z" fill="#E5E5E5"/>
</svg>
