<svg width="23" height="26" viewBox="0 0 23 26" fill="none" xmlns="http://www.w3.org/2000/svg">
<path d="M0.704254 3.49725H21.8324C22.2212 3.49725 22.5367 2.79719 22.5367 1.93478C22.5367 1.07224 22.2211 0.372314 21.8324 0.372314H0.704254C0.31548 0.372314 0 1.07237 0 1.93478C0 2.79719 0.315539 3.49725 0.704254 3.49725Z" fill="black"/>
<path d="M21.8324 11.3098H0.704254C0.31548 11.3098 0 12.0099 0 12.8723C0 13.7347 0.315539 14.4347 0.704254 14.4347H21.8324C22.2212 14.4347 22.5367 13.7347 22.5367 12.8723C22.5367 12.0099 22.2212 11.3098 21.8324 11.3098Z" fill="black"/>
<path d="M21.8324 22.2473H7.74698C7.3582 22.2473 7.04272 22.9474 7.04272 23.8098C7.04272 24.6723 7.35826 25.3722 7.74698 25.3722H21.8324C22.2212 25.3722 22.5367 24.6722 22.5367 23.8098C22.5367 22.9472 22.2212 22.2473 21.8324 22.2473Z" fill="black"/>
</svg>
