<svg width="1920" height="1270" viewBox="0 0 1920 1270" fill="none" xmlns="http://www.w3.org/2000/svg">
<path d="M8.32455 312.073C8.32455 314.789 6.93713 316.147 4.16228 316.147C1.38743 316.147 0 314.789 0 312.073C0 310.037 2.08114 308 4.16228 308C6.24342 308 8.32455 310.037 8.32455 312.073Z" fill="#E5E5E5"/>
<path d="M97.1197 312.073C97.1197 314.11 95.0386 316.147 92.9574 316.147C90.8763 316.147 88.7952 314.11 88.7952 312.073C88.7952 310.037 90.1826 308 92.9574 308C95.0386 308 97.1197 310.037 97.1197 312.073Z" fill="#E5E5E5"/>
<path d="M185.915 312.073C185.915 314.11 183.834 316.147 181.753 316.147C179.671 316.147 177.59 314.11 177.59 312.073C177.59 310.037 179.671 308 181.753 308C183.834 308 185.915 310.037 185.915 312.073Z" fill="#E5E5E5"/>
<path d="M274.71 312.073C274.71 314.11 272.629 316.147 270.548 316.147C268.467 316.147 266.386 314.11 266.386 312.073C266.386 310.037 268.467 308 270.548 308C272.629 308 274.71 310.037 274.71 312.073Z" fill="#E5E5E5"/>
<path d="M362.812 312.073C362.812 314.11 360.73 316.147 358.649 316.147C356.568 316.147 354.487 314.11 354.487 312.073C354.487 310.037 356.568 308 358.649 308C360.73 308 362.812 310.037 362.812 312.073Z" fill="#E5E5E5"/>
<path d="M451.607 312.073C451.607 314.11 449.526 316.147 447.445 316.147C445.364 316.147 443.282 314.789 443.282 312.073C443.282 310.037 445.364 308 447.445 308C449.526 308 451.607 310.037 451.607 312.073Z" fill="#E5E5E5"/>
<path d="M540.402 312.073C540.402 314.11 538.321 316.147 536.24 316.147C534.159 316.147 531.384 314.789 531.384 312.073C531.384 310.037 533.465 308 535.546 308C537.627 308 540.402 310.037 540.402 312.073Z" fill="#E5E5E5"/>
<path d="M628.504 312.073C628.504 314.11 626.423 316.147 624.341 316.147C622.26 316.147 620.179 314.11 620.179 312.073C620.179 310.037 622.26 308 624.341 308C627.116 308 628.504 310.037 628.504 312.073Z" fill="#E5E5E5"/>
<path d="M717.299 312.073C717.299 314.11 715.218 316.147 713.137 316.147C711.056 316.147 708.974 314.11 708.974 312.073C708.974 310.037 711.056 308 713.137 308C715.218 308 717.299 310.037 717.299 312.073Z" fill="#E5E5E5"/>
<path d="M806.094 312.073C806.094 314.11 804.013 316.147 801.932 316.147C799.851 316.147 797.77 314.11 797.77 312.073C797.77 310.037 799.851 308 801.932 308C804.013 308 806.094 310.037 806.094 312.073Z" fill="#E5E5E5"/>
<path d="M894.889 312.073C894.889 314.11 892.808 316.147 890.727 316.147C888.646 316.147 886.565 314.11 886.565 312.073C886.565 310.037 888.646 308 890.727 308C892.808 308 894.889 310.037 894.889 312.073Z" fill="#E5E5E5"/>
<path d="M982.991 312.073C982.991 314.11 980.91 316.147 978.829 316.147C976.748 316.147 974.667 314.11 974.667 312.073C974.667 310.037 976.748 308 978.829 308C981.604 308 982.991 310.037 982.991 312.073Z" fill="#E5E5E5"/>
<path d="M8.32455 398.973C8.32455 401.01 6.93713 403.046 4.16228 403.046C1.38743 403.046 0 401.01 0 398.973C0 396.936 2.08114 394.899 4.16228 394.899C6.24342 394.899 8.32455 396.257 8.32455 398.973Z" fill="#E5E5E5"/>
<path d="M97.1197 398.973C97.1197 401.01 95.0386 403.046 92.9574 403.046C90.8763 403.046 88.7952 401.01 88.7952 398.973C88.7952 396.936 90.8763 394.899 92.9574 394.899C95.0386 394.899 97.1197 396.257 97.1197 398.973Z" fill="#E5E5E5"/>
<path d="M185.915 398.973C185.915 401.01 183.834 403.046 181.753 403.046C179.671 403.046 177.59 401.01 177.59 398.973C177.59 396.936 179.671 394.899 181.753 394.899C183.834 394.899 185.915 396.257 185.915 398.973Z" fill="#E5E5E5"/>
<path d="M274.71 398.973C274.71 401.01 272.629 403.046 270.548 403.046C268.467 403.046 266.386 401.01 266.386 398.973C266.386 396.936 268.467 394.899 270.548 394.899C272.629 394.899 274.71 396.257 274.71 398.973Z" fill="#E5E5E5"/>
<path d="M362.812 398.973C362.812 401.01 360.73 403.046 358.649 403.046C356.568 403.046 354.487 401.01 354.487 398.973C354.487 396.936 356.568 394.899 358.649 394.899C360.73 394.899 362.812 396.257 362.812 398.973Z" fill="#E5E5E5"/>
<path d="M451.607 398.973C451.607 401.01 449.526 403.046 447.445 403.046C445.364 403.046 443.282 401.01 443.282 398.973C443.282 396.936 445.364 394.899 447.445 394.899C449.526 394.899 451.607 396.257 451.607 398.973Z" fill="#E5E5E5"/>
<path d="M540.402 398.973C540.402 401.01 538.321 403.046 536.24 403.046C534.159 403.046 532.078 401.01 532.078 398.973C532.078 396.936 534.159 394.899 536.24 394.899C538.321 394.899 540.402 396.257 540.402 398.973Z" fill="#E5E5E5"/>
<path d="M628.504 398.973C628.504 401.01 626.423 403.046 624.341 403.046C622.26 403.046 620.179 401.01 620.179 398.973C620.179 396.936 622.26 394.899 624.341 394.899C627.116 394.899 628.504 396.257 628.504 398.973Z" fill="#E5E5E5"/>
<path d="M717.299 398.973C717.299 401.01 715.218 403.046 713.137 403.046C711.056 403.046 708.974 401.01 708.974 398.973C708.974 396.936 711.056 394.899 713.137 394.899C715.218 394.899 717.299 396.257 717.299 398.973Z" fill="#E5E5E5"/>
<path d="M806.094 398.973C806.094 401.01 804.013 403.046 801.932 403.046C799.851 403.046 797.77 401.01 797.77 398.973C797.77 396.936 799.851 394.899 801.932 394.899C804.013 394.899 806.094 396.257 806.094 398.973Z" fill="#E5E5E5"/>
<path d="M894.889 398.973C894.889 401.01 892.808 403.046 890.727 403.046C888.646 403.046 886.565 401.01 886.565 398.973C886.565 396.936 888.646 394.899 890.727 394.899C892.808 394.899 894.889 396.257 894.889 398.973Z" fill="#E5E5E5"/>
<path d="M982.991 398.973C982.991 401.01 980.91 403.046 978.829 403.046C976.748 403.046 974.667 401.01 974.667 398.973C974.667 396.936 976.748 394.899 978.829 394.899C981.604 394.899 982.991 396.257 982.991 398.973Z" fill="#E5E5E5"/>
<path d="M8.32455 485.872C8.32455 487.909 6.24342 489.946 4.16228 489.946C2.08114 489.946 0 487.909 0 485.872C0 483.836 2.08114 481.799 4.16228 481.799C6.24342 481.799 8.32455 483.157 8.32455 485.872Z" fill="#E5E5E5"/>
<path d="M97.1197 485.871C97.1197 487.908 95.0386 489.945 92.9574 489.945C90.8763 489.945 88.7952 487.908 88.7952 485.871C88.7952 483.835 90.8763 481.798 92.9574 481.798C95.0386 481.119 97.1197 483.156 97.1197 485.871Z" fill="#E5E5E5"/>
<path d="M185.915 485.871C185.915 487.908 183.834 489.945 181.753 489.945C179.671 489.945 177.59 487.908 177.59 485.871C177.59 483.835 179.671 481.798 181.753 481.798C183.834 481.119 185.915 483.156 185.915 485.871Z" fill="#E5E5E5"/>
<path d="M274.71 485.871C274.71 487.908 272.629 489.945 270.548 489.945C268.467 489.945 266.386 487.908 266.386 485.871C266.386 483.835 268.467 481.798 270.548 481.798C272.629 481.119 274.71 483.156 274.71 485.871Z" fill="#E5E5E5"/>
<path d="M362.812 485.871C362.812 487.908 360.73 489.945 358.649 489.945C356.568 489.945 354.487 487.908 354.487 485.871C354.487 483.835 356.568 481.798 358.649 481.798C360.73 481.119 362.812 483.156 362.812 485.871Z" fill="#E5E5E5"/>
<path d="M451.607 485.872C451.607 487.909 449.526 489.946 447.445 489.946C445.364 489.946 443.282 487.909 443.282 485.872C443.282 483.836 445.364 481.799 447.445 481.799C449.526 481.799 451.607 483.157 451.607 485.872Z" fill="#E5E5E5"/>
<path d="M540.402 485.872C540.402 487.909 538.321 489.946 536.24 489.946C534.159 489.946 532.078 487.909 532.078 485.872C532.078 483.836 534.159 481.799 536.24 481.799C538.321 481.799 540.402 483.157 540.402 485.872Z" fill="#E5E5E5"/>
<path d="M628.504 485.871C628.504 487.908 626.423 489.945 624.341 489.945C622.26 489.945 620.179 487.908 620.179 485.871C620.179 483.835 622.26 481.798 624.341 481.798C627.116 481.119 628.504 483.156 628.504 485.871Z" fill="#E5E5E5"/>
<path d="M717.299 485.871C717.299 487.908 715.218 489.945 713.137 489.945C711.056 489.945 708.974 487.908 708.974 485.871C708.974 483.835 711.056 481.798 713.137 481.798C715.218 481.119 717.299 483.156 717.299 485.871Z" fill="#E5E5E5"/>
<path d="M806.094 485.871C806.094 487.908 804.013 489.945 801.932 489.945C799.851 489.945 797.77 487.908 797.77 485.871C797.77 483.835 799.851 481.798 801.932 481.798C804.013 481.119 806.094 483.156 806.094 485.871Z" fill="#E5E5E5"/>
<path d="M894.889 485.871C894.889 487.908 892.808 489.945 890.727 489.945C888.646 489.945 886.565 487.908 886.565 485.871C886.565 483.835 888.646 481.798 890.727 481.798C892.808 481.119 894.889 483.156 894.889 485.871Z" fill="#E5E5E5"/>
<path d="M982.991 485.871C982.991 487.908 980.91 489.945 978.829 489.945C976.748 489.945 974.667 487.908 974.667 485.871C974.667 483.835 976.748 481.798 978.829 481.798C981.604 481.119 982.991 483.156 982.991 485.871Z" fill="#E5E5E5"/>
<path d="M8.32455 572.092C8.32455 574.129 6.24342 576.165 4.16228 576.165C2.08114 576.165 0 574.808 0 572.092C0 570.055 2.08114 568.019 4.16228 568.019C6.24342 568.019 8.32455 570.055 8.32455 572.092Z" fill="#E5E5E5"/>
<path d="M97.1197 572.092C97.1197 574.129 95.0386 576.165 92.9574 576.165C90.8763 576.165 88.7952 574.129 88.7952 572.092C88.7952 570.055 90.8763 568.019 92.9574 568.019C95.0386 568.019 97.1197 570.055 97.1197 572.092Z" fill="#E5E5E5"/>
<path d="M185.915 572.092C185.915 574.129 183.834 576.165 181.753 576.165C179.671 576.165 177.59 574.129 177.59 572.092C177.59 570.055 179.671 568.019 181.753 568.019C183.834 568.019 185.915 570.055 185.915 572.092Z" fill="#E5E5E5"/>
<path d="M274.71 572.092C274.71 574.129 272.629 576.165 270.548 576.165C268.467 576.165 266.386 574.129 266.386 572.092C266.386 570.055 268.467 568.019 270.548 568.019C272.629 568.019 274.71 570.055 274.71 572.092Z" fill="#E5E5E5"/>
<path d="M362.812 572.092C362.812 574.129 360.73 576.165 358.649 576.165C356.568 576.165 354.487 574.129 354.487 572.092C354.487 570.055 356.568 568.019 358.649 568.019C360.73 568.019 362.812 570.055 362.812 572.092Z" fill="#E5E5E5"/>
<path d="M451.607 572.092C451.607 574.129 449.526 576.165 447.445 576.165C445.364 576.165 443.282 574.129 443.282 572.092C443.282 570.055 445.364 568.019 447.445 568.019C449.526 568.019 451.607 570.055 451.607 572.092Z" fill="#E5E5E5"/>
<path d="M540.402 572.092C540.402 574.129 538.321 576.165 536.24 576.165C534.159 576.165 532.078 574.129 532.078 572.092C532.078 570.055 534.159 568.019 536.24 568.019C538.321 568.019 540.402 570.055 540.402 572.092Z" fill="#E5E5E5"/>
<path d="M628.504 572.092C628.504 574.129 626.423 576.165 624.341 576.165C622.26 576.165 620.179 574.129 620.179 572.092C620.179 570.055 622.26 568.019 624.341 568.019C627.116 568.019 628.504 570.055 628.504 572.092Z" fill="#E5E5E5"/>
<path d="M717.299 572.092C717.299 574.129 715.218 576.165 713.137 576.165C711.056 576.165 708.974 574.129 708.974 572.092C708.974 570.055 711.056 568.019 713.137 568.019C715.218 568.019 717.299 570.055 717.299 572.092Z" fill="#E5E5E5"/>
<path d="M806.094 572.092C806.094 574.129 804.013 576.165 801.932 576.165C799.851 576.165 797.77 574.129 797.77 572.092C797.77 570.055 799.851 568.019 801.932 568.019C804.013 568.019 806.094 570.055 806.094 572.092Z" fill="#E5E5E5"/>
<path d="M894.889 572.092C894.889 574.129 892.808 576.165 890.727 576.165C888.646 576.165 886.565 574.129 886.565 572.092C886.565 570.055 888.646 568.019 890.727 568.019C892.808 568.019 894.889 570.055 894.889 572.092Z" fill="#E5E5E5"/>
<path d="M982.991 572.092C982.991 574.129 980.91 576.165 978.829 576.165C976.748 576.165 974.667 574.129 974.667 572.092C974.667 570.055 976.748 568.019 978.829 568.019C981.604 568.019 982.991 570.055 982.991 572.092Z" fill="#E5E5E5"/>
<path d="M8.32455 658.991C8.32455 661.028 6.24342 663.065 4.16228 663.065C2.08114 663.065 0 661.028 0 658.991C0 656.954 2.08114 654.918 4.16228 654.918C6.24342 654.918 8.32455 656.954 8.32455 658.991Z" fill="#E5E5E5"/>
<path d="M97.1197 658.991C97.1197 661.028 95.0386 663.065 92.9574 663.065C90.8763 663.065 88.7952 661.028 88.7952 658.991C88.7952 656.954 90.8763 654.918 92.9574 654.918C95.0386 654.918 97.1197 656.954 97.1197 658.991Z" fill="#E5E5E5"/>
<path d="M185.915 658.991C185.915 661.028 183.834 663.065 181.753 663.065C179.671 663.065 177.59 661.028 177.59 658.991C177.59 656.954 179.671 654.918 181.753 654.918C183.834 654.918 185.915 656.954 185.915 658.991Z" fill="#E5E5E5"/>
<path d="M274.71 658.991C274.71 661.028 272.629 663.065 270.548 663.065C268.467 663.065 266.386 661.028 266.386 658.991C266.386 656.954 268.467 654.918 270.548 654.918C272.629 654.918 274.71 656.954 274.71 658.991Z" fill="#E5E5E5"/>
<path d="M362.812 658.991C362.812 661.028 360.73 663.065 358.649 663.065C356.568 663.065 354.487 661.028 354.487 658.991C354.487 656.954 356.568 654.918 358.649 654.918C360.73 654.918 362.812 656.954 362.812 658.991Z" fill="#E5E5E5"/>
<path d="M451.607 658.991C451.607 661.028 449.526 663.065 447.445 663.065C445.364 663.065 443.282 661.028 443.282 658.991C443.282 656.954 445.364 654.918 447.445 654.918C449.526 654.918 451.607 656.954 451.607 658.991Z" fill="#E5E5E5"/>
<path d="M540.402 658.991C540.402 661.028 538.321 663.065 536.24 663.065C534.159 663.065 532.078 661.028 532.078 658.991C532.078 656.954 534.159 654.918 536.24 654.918C538.321 654.918 540.402 656.954 540.402 658.991Z" fill="#E5E5E5"/>
<path d="M628.504 658.991C628.504 661.028 626.423 663.065 624.341 663.065C622.26 663.065 620.179 661.028 620.179 658.991C620.179 656.954 622.26 654.918 624.341 654.918C627.116 654.918 628.504 656.954 628.504 658.991Z" fill="#E5E5E5"/>
<path d="M717.299 658.991C717.299 661.028 715.218 663.065 713.137 663.065C711.056 663.065 708.974 661.028 708.974 658.991C708.974 656.954 711.056 654.918 713.137 654.918C715.218 654.918 717.299 656.954 717.299 658.991Z" fill="#E5E5E5"/>
<path d="M806.094 658.991C806.094 661.028 804.013 663.065 801.932 663.065C799.851 663.065 797.77 661.028 797.77 658.991C797.77 656.954 799.851 654.918 801.932 654.918C804.013 654.918 806.094 656.954 806.094 658.991Z" fill="#E5E5E5"/>
<path d="M894.889 658.991C894.889 661.028 892.808 663.065 890.727 663.065C888.646 663.065 886.565 661.028 886.565 658.991C886.565 656.954 888.646 654.918 890.727 654.918C892.808 654.918 894.889 656.954 894.889 658.991Z" fill="#E5E5E5"/>
<path d="M982.991 658.991C982.991 661.028 980.91 663.065 978.829 663.065C976.748 663.065 974.667 661.028 974.667 658.991C974.667 656.954 976.748 654.918 978.829 654.918C981.604 654.918 982.991 656.954 982.991 658.991Z" fill="#E5E5E5"/>
<path d="M8.32455 745.889C8.32455 747.926 6.24342 749.963 4.16228 749.963C2.08114 749.963 0 747.926 0 745.889C0 743.853 2.08114 741.816 4.16228 741.816C6.24342 741.816 8.32455 743.174 8.32455 745.889Z" fill="#E5E5E5"/>
<path d="M97.1197 745.889C97.1197 747.926 95.0386 749.963 92.9574 749.963C90.8763 749.963 88.7952 747.926 88.7952 745.889C88.7952 743.853 90.8763 741.816 92.9574 741.816C95.0386 741.816 97.1197 743.174 97.1197 745.889Z" fill="#E5E5E5"/>
<path d="M185.915 745.889C185.915 747.926 183.834 749.963 181.753 749.963C179.671 749.963 177.59 747.926 177.59 745.889C177.59 743.853 179.671 741.816 181.753 741.816C183.834 741.816 185.915 743.174 185.915 745.889Z" fill="#E5E5E5"/>
<path d="M274.71 745.889C274.71 747.926 272.629 749.963 270.548 749.963C268.467 749.963 266.386 747.926 266.386 745.889C266.386 743.853 268.467 741.816 270.548 741.816C272.629 741.816 274.71 743.174 274.71 745.889Z" fill="#E5E5E5"/>
<path d="M362.812 745.889C362.812 747.926 360.73 749.963 358.649 749.963C356.568 749.963 354.487 747.926 354.487 745.889C354.487 743.853 356.568 741.816 358.649 741.816C360.73 741.816 362.812 743.174 362.812 745.889Z" fill="#E5E5E5"/>
<path d="M451.607 745.889C451.607 747.926 449.526 749.963 447.445 749.963C445.364 749.963 443.282 747.926 443.282 745.889C443.282 743.853 445.364 741.816 447.445 741.816C449.526 741.816 451.607 743.174 451.607 745.889Z" fill="#E5E5E5"/>
<path d="M540.402 745.889C540.402 747.926 538.321 749.963 536.24 749.963C534.159 749.963 532.078 747.926 532.078 745.889C532.078 743.853 534.159 741.816 536.24 741.816C538.321 741.816 540.402 743.174 540.402 745.889Z" fill="#E5E5E5"/>
<path d="M628.504 745.889C628.504 747.926 626.423 749.963 624.341 749.963C622.26 749.963 620.179 747.926 620.179 745.889C620.179 743.853 622.26 741.816 624.341 741.816C627.116 741.816 628.504 743.174 628.504 745.889Z" fill="#E5E5E5"/>
<path d="M717.299 745.889C717.299 747.926 715.218 749.963 713.137 749.963C711.056 749.963 708.974 747.926 708.974 745.889C708.974 743.853 711.056 741.816 713.137 741.816C715.218 741.816 717.299 743.174 717.299 745.889Z" fill="#E5E5E5"/>
<path d="M806.094 745.889C806.094 747.926 804.013 749.963 801.932 749.963C799.851 749.963 797.77 747.926 797.77 745.889C797.77 743.853 799.851 741.816 801.932 741.816C804.013 741.816 806.094 743.174 806.094 745.889Z" fill="#E5E5E5"/>
<path d="M894.889 745.889C894.889 747.926 892.808 749.963 890.727 749.963C888.646 749.963 886.565 747.926 886.565 745.889C886.565 743.853 888.646 741.816 890.727 741.816C892.808 741.816 894.889 743.174 894.889 745.889Z" fill="#E5E5E5"/>
<path d="M982.991 745.889C982.991 747.926 980.91 749.963 978.829 749.963C976.748 749.963 974.667 747.926 974.667 745.889C974.667 743.853 976.748 741.816 978.829 741.816C981.604 741.816 982.991 743.174 982.991 745.889Z" fill="#E5E5E5"/>
<path d="M8.32455 832.789C8.32455 834.826 6.24342 836.862 4.16228 836.862C2.08114 836.862 0 834.826 0 832.789C0 830.752 2.08114 828.715 4.16228 828.715C6.24342 828.715 8.32455 830.073 8.32455 832.789Z" fill="#E5E5E5"/>
<path d="M97.1197 832.789C97.1197 834.826 95.0386 836.863 92.9574 836.863C90.8763 836.863 88.7952 834.826 88.7952 832.789C88.7952 830.753 90.8763 828.716 92.9574 828.716C95.0386 828.037 97.1197 830.074 97.1197 832.789Z" fill="#E5E5E5"/>
<path d="M185.915 832.789C185.915 834.826 183.834 836.863 181.753 836.863C179.671 836.863 177.59 834.826 177.59 832.789C177.59 830.753 179.671 828.716 181.753 828.716C183.834 828.037 185.915 830.074 185.915 832.789Z" fill="#E5E5E5"/>
<path d="M274.71 832.789C274.71 834.826 272.629 836.863 270.548 836.863C268.467 836.863 266.386 834.826 266.386 832.789C266.386 830.753 268.467 828.716 270.548 828.716C272.629 828.037 274.71 830.074 274.71 832.789Z" fill="#E5E5E5"/>
<path d="M362.812 832.789C362.812 834.826 360.73 836.863 358.649 836.863C356.568 836.863 354.487 834.826 354.487 832.789C354.487 830.753 356.568 828.716 358.649 828.716C360.73 828.037 362.812 830.074 362.812 832.789Z" fill="#E5E5E5"/>
<path d="M451.607 832.789C451.607 834.826 449.526 836.862 447.445 836.862C445.364 836.862 443.282 834.826 443.282 832.789C443.282 830.752 445.364 828.715 447.445 828.715C449.526 828.715 451.607 830.073 451.607 832.789Z" fill="#E5E5E5"/>
<path d="M540.402 832.789C540.402 834.826 538.321 836.862 536.24 836.862C534.159 836.862 532.078 834.826 532.078 832.789C532.078 830.752 534.159 828.715 536.24 828.715C538.321 828.715 540.402 830.073 540.402 832.789Z" fill="#E5E5E5"/>
<path d="M628.504 832.789C628.504 834.826 626.423 836.863 624.341 836.863C622.26 836.863 620.179 834.826 620.179 832.789C620.179 830.753 622.26 828.716 624.341 828.716C627.116 828.037 628.504 830.074 628.504 832.789Z" fill="#E5E5E5"/>
<path d="M717.299 832.789C717.299 834.826 715.218 836.863 713.137 836.863C711.056 836.863 708.974 834.826 708.974 832.789C708.974 830.753 711.056 828.716 713.137 828.716C715.218 828.037 717.299 830.074 717.299 832.789Z" fill="#E5E5E5"/>
<path d="M806.094 832.789C806.094 834.826 804.013 836.863 801.932 836.863C799.851 836.863 797.77 834.826 797.77 832.789C797.77 830.753 799.851 828.716 801.932 828.716C804.013 828.037 806.094 830.074 806.094 832.789Z" fill="#E5E5E5"/>
<path d="M894.889 832.789C894.889 834.826 892.808 836.863 890.727 836.863C888.646 836.863 886.565 834.826 886.565 832.789C886.565 830.753 888.646 828.716 890.727 828.716C892.808 828.037 894.889 830.074 894.889 832.789Z" fill="#E5E5E5"/>
<path d="M982.991 832.789C982.991 834.826 980.91 836.863 978.829 836.863C976.748 836.863 974.667 834.826 974.667 832.789C974.667 830.753 976.748 828.716 978.829 828.716C981.604 828.037 982.991 830.074 982.991 832.789Z" fill="#E5E5E5"/>
<path d="M8.32455 919.009C8.32455 921.045 6.24342 923.082 4.16228 923.082C2.08114 923.082 0 921.724 0 919.009C0 916.972 2.08114 914.935 4.16228 914.935C6.24342 914.935 8.32455 916.972 8.32455 919.009Z" fill="#E5E5E5"/>
<path d="M97.1197 919.009C97.1197 921.045 95.0386 923.082 92.9574 923.082C90.8763 923.082 88.7952 921.045 88.7952 919.009C88.7952 916.972 90.8763 914.935 92.9574 914.935C95.0386 914.935 97.1197 916.972 97.1197 919.009Z" fill="#E5E5E5"/>
<path d="M185.915 919.009C185.915 921.045 183.834 923.082 181.753 923.082C179.671 923.082 177.59 921.045 177.59 919.009C177.59 916.972 179.671 914.935 181.753 914.935C183.834 914.935 185.915 916.972 185.915 919.009Z" fill="#E5E5E5"/>
<path d="M274.71 919.009C274.71 921.045 272.629 923.082 270.548 923.082C268.467 923.082 266.386 921.045 266.386 919.009C266.386 916.972 268.467 914.935 270.548 914.935C272.629 914.935 274.71 916.972 274.71 919.009Z" fill="#E5E5E5"/>
<path d="M362.812 919.009C362.812 921.045 360.73 923.082 358.649 923.082C356.568 923.082 354.487 921.045 354.487 919.009C354.487 916.972 356.568 914.935 358.649 914.935C360.73 914.935 362.812 916.972 362.812 919.009Z" fill="#E5E5E5"/>
<path d="M451.607 919.009C451.607 921.045 449.526 923.082 447.445 923.082C445.364 923.082 443.282 921.045 443.282 919.009C443.282 916.972 445.364 914.935 447.445 914.935C449.526 914.935 451.607 916.972 451.607 919.009Z" fill="#E5E5E5"/>
<path d="M540.402 919.009C540.402 921.045 538.321 923.082 536.24 923.082C534.159 923.082 532.078 921.045 532.078 919.009C532.078 916.972 534.159 914.935 536.24 914.935C538.321 914.935 540.402 916.972 540.402 919.009Z" fill="#E5E5E5"/>
<path d="M628.504 919.009C628.504 921.045 626.423 923.082 624.341 923.082C622.26 923.082 620.179 921.045 620.179 919.009C620.179 916.972 622.26 914.935 624.341 914.935C627.116 914.935 628.504 916.972 628.504 919.009Z" fill="#E5E5E5"/>
<path d="M717.299 919.009C717.299 921.045 715.218 923.082 713.137 923.082C711.056 923.082 708.974 921.045 708.974 919.009C708.974 916.972 711.056 914.935 713.137 914.935C715.218 914.935 717.299 916.972 717.299 919.009Z" fill="#E5E5E5"/>
<path d="M806.094 919.009C806.094 921.045 804.013 923.082 801.932 923.082C799.851 923.082 797.77 921.045 797.77 919.009C797.77 916.972 799.851 914.935 801.932 914.935C804.013 914.935 806.094 916.972 806.094 919.009Z" fill="#E5E5E5"/>
<path d="M894.889 919.009C894.889 921.045 892.808 923.082 890.727 923.082C888.646 923.082 886.565 921.045 886.565 919.009C886.565 916.972 888.646 914.935 890.727 914.935C892.808 914.935 894.889 916.972 894.889 919.009Z" fill="#E5E5E5"/>
<path d="M982.991 919.009C982.991 921.045 980.91 923.082 978.829 923.082C976.748 923.082 974.667 921.045 974.667 919.009C974.667 916.972 976.748 914.935 978.829 914.935C981.604 914.935 982.991 916.972 982.991 919.009Z" fill="#E5E5E5"/>
<path d="M8.32455 1005.91C8.32455 1007.94 6.24342 1009.98 4.16228 1009.98C2.08114 1009.98 0 1007.94 0 1005.91C0 1003.87 2.08114 1001.83 4.16228 1001.83C6.24342 1001.83 8.32455 1003.87 8.32455 1005.91Z" fill="#E5E5E5"/>
<path d="M97.1197 1005.91C97.1197 1007.94 95.0386 1009.98 92.9574 1009.98C90.8763 1009.98 88.7952 1007.94 88.7952 1005.91C88.7952 1003.87 90.8763 1001.83 92.9574 1001.83C95.0386 1001.83 97.1197 1003.87 97.1197 1005.91Z" fill="#E5E5E5"/>
<path d="M185.915 1005.91C185.915 1007.94 183.834 1009.98 181.753 1009.98C179.671 1009.98 177.59 1007.94 177.59 1005.91C177.59 1003.87 179.671 1001.83 181.753 1001.83C183.834 1001.83 185.915 1003.87 185.915 1005.91Z" fill="#E5E5E5"/>
<path d="M274.71 1005.91C274.71 1007.94 272.629 1009.98 270.548 1009.98C268.467 1009.98 266.386 1007.94 266.386 1005.91C266.386 1003.87 268.467 1001.83 270.548 1001.83C272.629 1001.83 274.71 1003.87 274.71 1005.91Z" fill="#E5E5E5"/>
<path d="M362.812 1005.91C362.812 1007.94 360.73 1009.98 358.649 1009.98C356.568 1009.98 354.487 1007.94 354.487 1005.91C354.487 1003.87 356.568 1001.83 358.649 1001.83C360.73 1001.83 362.812 1003.87 362.812 1005.91Z" fill="#E5E5E5"/>
<path d="M451.607 1005.91C451.607 1007.94 449.526 1009.98 447.445 1009.98C445.364 1009.98 443.282 1007.94 443.282 1005.91C443.282 1003.87 445.364 1001.83 447.445 1001.83C449.526 1001.83 451.607 1003.87 451.607 1005.91Z" fill="#E5E5E5"/>
<path d="M540.402 1005.91C540.402 1007.94 538.321 1009.98 536.24 1009.98C534.159 1009.98 532.078 1007.94 532.078 1005.91C532.078 1003.87 534.159 1001.83 536.24 1001.83C538.321 1001.83 540.402 1003.87 540.402 1005.91Z" fill="#E5E5E5"/>
<path d="M628.504 1005.91C628.504 1007.94 626.423 1009.98 624.341 1009.98C622.26 1009.98 620.179 1007.94 620.179 1005.91C620.179 1003.87 622.26 1001.83 624.341 1001.83C627.116 1001.83 628.504 1003.87 628.504 1005.91Z" fill="#E5E5E5"/>
<path d="M717.299 1005.91C717.299 1007.94 715.218 1009.98 713.137 1009.98C711.056 1009.98 708.974 1007.94 708.974 1005.91C708.974 1003.87 711.056 1001.83 713.137 1001.83C715.218 1001.83 717.299 1003.87 717.299 1005.91Z" fill="#E5E5E5"/>
<path d="M806.094 1005.91C806.094 1007.94 804.013 1009.98 801.932 1009.98C799.851 1009.98 797.77 1007.94 797.77 1005.91C797.77 1003.87 799.851 1001.83 801.932 1001.83C804.013 1001.83 806.094 1003.87 806.094 1005.91Z" fill="#E5E5E5"/>
<path d="M894.889 1005.91C894.889 1007.94 892.808 1009.98 890.727 1009.98C888.646 1009.98 886.565 1007.94 886.565 1005.91C886.565 1003.87 888.646 1001.83 890.727 1001.83C892.808 1001.83 894.889 1003.87 894.889 1005.91Z" fill="#E5E5E5"/>
<path d="M982.991 1005.91C982.991 1007.94 980.91 1009.98 978.829 1009.98C976.748 1009.98 974.667 1007.94 974.667 1005.91C974.667 1003.87 976.748 1001.83 978.829 1001.83C981.604 1001.83 982.991 1003.87 982.991 1005.91Z" fill="#E5E5E5"/>
<path d="M8.32455 1092.81C8.32455 1094.84 6.24342 1096.88 4.16228 1096.88C2.08114 1096.88 0 1094.84 0 1092.81C0 1090.77 2.08114 1088.73 4.16228 1088.73C6.24342 1088.73 8.32455 1090.09 8.32455 1092.81Z" fill="#E5E5E5"/>
<path d="M97.1197 1092.81C97.1197 1094.84 95.0386 1096.88 92.9574 1096.88C90.8763 1096.88 88.7952 1094.84 88.7952 1092.81C88.7952 1090.77 90.8763 1088.73 92.9574 1088.73C95.0386 1088.73 97.1197 1090.09 97.1197 1092.81Z" fill="#E5E5E5"/>
<path d="M185.915 1092.81C185.915 1094.84 183.834 1096.88 181.753 1096.88C179.671 1096.88 177.59 1094.84 177.59 1092.81C177.59 1090.77 179.671 1088.73 181.753 1088.73C183.834 1088.73 185.915 1090.09 185.915 1092.81Z" fill="#E5E5E5"/>
<path d="M274.71 1092.81C274.71 1094.84 272.629 1096.88 270.548 1096.88C268.467 1096.88 266.386 1094.84 266.386 1092.81C266.386 1090.77 268.467 1088.73 270.548 1088.73C272.629 1088.73 274.71 1090.09 274.71 1092.81Z" fill="#E5E5E5"/>
<path d="M362.812 1092.81C362.812 1094.84 360.73 1096.88 358.649 1096.88C356.568 1096.88 354.487 1094.84 354.487 1092.81C354.487 1090.77 356.568 1088.73 358.649 1088.73C360.73 1088.73 362.812 1090.09 362.812 1092.81Z" fill="#E5E5E5"/>
<path d="M451.607 1092.81C451.607 1094.84 449.526 1096.88 447.445 1096.88C445.364 1096.88 443.282 1094.84 443.282 1092.81C443.282 1090.77 445.364 1088.73 447.445 1088.73C449.526 1088.73 451.607 1090.09 451.607 1092.81Z" fill="#E5E5E5"/>
<path d="M540.402 1092.81C540.402 1094.84 538.321 1096.88 536.24 1096.88C534.159 1096.88 532.078 1094.84 532.078 1092.81C532.078 1090.77 534.159 1088.73 536.24 1088.73C538.321 1088.73 540.402 1090.09 540.402 1092.81Z" fill="#E5E5E5"/>
<path d="M628.504 1092.81C628.504 1094.84 626.423 1096.88 624.341 1096.88C622.26 1096.88 620.179 1094.84 620.179 1092.81C620.179 1090.77 622.26 1088.73 624.341 1088.73C627.116 1088.73 628.504 1090.09 628.504 1092.81Z" fill="#E5E5E5"/>
<path d="M717.299 1092.81C717.299 1094.84 715.218 1096.88 713.137 1096.88C711.056 1096.88 708.974 1094.84 708.974 1092.81C708.974 1090.77 711.056 1088.73 713.137 1088.73C715.218 1088.73 717.299 1090.09 717.299 1092.81Z" fill="#E5E5E5"/>
<path d="M806.094 1092.81C806.094 1094.84 804.013 1096.88 801.932 1096.88C799.851 1096.88 797.77 1094.84 797.77 1092.81C797.77 1090.77 799.851 1088.73 801.932 1088.73C804.013 1088.73 806.094 1090.09 806.094 1092.81Z" fill="#E5E5E5"/>
<path d="M894.889 1092.81C894.889 1094.84 892.808 1096.88 890.727 1096.88C888.646 1096.88 886.565 1094.84 886.565 1092.81C886.565 1090.77 888.646 1088.73 890.727 1088.73C892.808 1088.73 894.889 1090.09 894.889 1092.81Z" fill="#E5E5E5"/>
<path d="M982.991 1092.81C982.991 1094.84 980.91 1096.88 978.829 1096.88C976.748 1096.88 974.667 1094.84 974.667 1092.81C974.667 1090.77 976.748 1088.73 978.829 1088.73C981.604 1088.73 982.991 1090.09 982.991 1092.81Z" fill="#E5E5E5"/>
<path d="M8.32455 1179.03C8.32455 1181.06 6.24342 1183.1 4.16228 1183.1C2.08114 1183.1 0 1181.74 0 1179.03C0 1176.99 2.08114 1174.95 4.16228 1174.95C6.24342 1174.95 8.32455 1176.99 8.32455 1179.03Z" fill="#E5E5E5"/>
<path d="M97.1197 1179.03C97.1197 1181.06 95.0386 1183.1 92.9574 1183.1C90.8763 1183.1 88.7952 1181.06 88.7952 1179.03C88.7952 1176.99 90.8763 1174.95 92.9574 1174.95C95.0386 1174.95 97.1197 1176.99 97.1197 1179.03Z" fill="#E5E5E5"/>
<path d="M185.915 1179.03C185.915 1181.06 183.834 1183.1 181.753 1183.1C179.671 1183.1 177.59 1181.06 177.59 1179.03C177.59 1176.99 179.671 1174.95 181.753 1174.95C183.834 1174.95 185.915 1176.99 185.915 1179.03Z" fill="#E5E5E5"/>
<path d="M274.71 1179.03C274.71 1181.06 272.629 1183.1 270.548 1183.1C268.467 1183.1 266.386 1181.06 266.386 1179.03C266.386 1176.99 268.467 1174.95 270.548 1174.95C272.629 1174.95 274.71 1176.99 274.71 1179.03Z" fill="#E5E5E5"/>
<path d="M362.812 1179.03C362.812 1181.06 360.73 1183.1 358.649 1183.1C356.568 1183.1 354.487 1181.06 354.487 1179.03C354.487 1176.99 356.568 1174.95 358.649 1174.95C360.73 1174.95 362.812 1176.99 362.812 1179.03Z" fill="#E5E5E5"/>
<path d="M451.607 1179.03C451.607 1181.06 449.526 1183.1 447.445 1183.1C445.364 1183.1 443.282 1181.06 443.282 1179.03C443.282 1176.99 445.364 1174.95 447.445 1174.95C449.526 1174.95 451.607 1176.99 451.607 1179.03Z" fill="#E5E5E5"/>
<path d="M540.402 1179.03C540.402 1181.06 538.321 1183.1 536.24 1183.1C534.159 1183.1 532.078 1181.06 532.078 1179.03C532.078 1176.99 534.159 1174.95 536.24 1174.95C538.321 1174.95 540.402 1176.99 540.402 1179.03Z" fill="#E5E5E5"/>
<path d="M628.504 1179.03C628.504 1181.06 626.423 1183.1 624.341 1183.1C622.26 1183.1 620.179 1181.06 620.179 1179.03C620.179 1176.99 622.26 1174.95 624.341 1174.95C627.116 1174.95 628.504 1176.99 628.504 1179.03Z" fill="#E5E5E5"/>
<path d="M717.299 1179.03C717.299 1181.06 715.218 1183.1 713.137 1183.1C711.056 1183.1 708.974 1181.06 708.974 1179.03C708.974 1176.99 711.056 1174.95 713.137 1174.95C715.218 1174.95 717.299 1176.99 717.299 1179.03Z" fill="#E5E5E5"/>
<path d="M806.094 1179.03C806.094 1181.06 804.013 1183.1 801.932 1183.1C799.851 1183.1 797.77 1181.06 797.77 1179.03C797.77 1176.99 799.851 1174.95 801.932 1174.95C804.013 1174.95 806.094 1176.99 806.094 1179.03Z" fill="#E5E5E5"/>
<path d="M894.889 1179.03C894.889 1181.06 892.808 1183.1 890.727 1183.1C888.646 1183.1 886.565 1181.06 886.565 1179.03C886.565 1176.99 888.646 1174.95 890.727 1174.95C892.808 1174.95 894.889 1176.99 894.889 1179.03Z" fill="#E5E5E5"/>
<path d="M982.991 1179.03C982.991 1181.06 980.91 1183.1 978.829 1183.1C976.748 1183.1 974.667 1181.06 974.667 1179.03C974.667 1176.99 976.748 1174.95 978.829 1174.95C981.604 1174.95 982.991 1176.99 982.991 1179.03Z" fill="#E5E5E5"/>
<path d="M8.32455 1265.93C8.32455 1267.96 6.24342 1270 4.16228 1270C2.08114 1270 0 1268.64 0 1265.93C0 1263.89 2.08114 1261.85 4.16228 1261.85C6.24342 1261.85 8.32455 1263.89 8.32455 1265.93Z" fill="#E5E5E5"/>
<path d="M97.1197 1265.93C97.1197 1267.96 95.0386 1270 92.9574 1270C90.8763 1270 88.7952 1267.96 88.7952 1265.93C88.7952 1263.89 90.8763 1261.85 92.9574 1261.85C95.0386 1261.85 97.1197 1263.89 97.1197 1265.93Z" fill="#E5E5E5"/>
<path d="M185.915 1265.93C185.915 1267.96 183.834 1270 181.753 1270C179.671 1270 177.59 1267.96 177.59 1265.93C177.59 1263.89 179.671 1261.85 181.753 1261.85C183.834 1261.85 185.915 1263.89 185.915 1265.93Z" fill="#E5E5E5"/>
<path d="M274.71 1265.93C274.71 1267.96 272.629 1270 270.548 1270C268.467 1270 266.386 1267.96 266.386 1265.93C266.386 1263.89 268.467 1261.85 270.548 1261.85C272.629 1261.85 274.71 1263.89 274.71 1265.93Z" fill="#E5E5E5"/>
<path d="M362.812 1265.93C362.812 1267.96 360.73 1270 358.649 1270C356.568 1270 354.487 1267.96 354.487 1265.93C354.487 1263.89 356.568 1261.85 358.649 1261.85C360.73 1261.85 362.812 1263.89 362.812 1265.93Z" fill="#E5E5E5"/>
<path d="M451.607 1265.93C451.607 1267.96 449.526 1270 447.445 1270C445.364 1270 443.282 1267.96 443.282 1265.93C443.282 1263.89 445.364 1261.85 447.445 1261.85C449.526 1261.85 451.607 1263.89 451.607 1265.93Z" fill="#E5E5E5"/>
<path d="M540.402 1265.93C540.402 1267.96 538.321 1270 536.24 1270C534.159 1270 532.078 1267.96 532.078 1265.93C532.078 1263.89 534.159 1261.85 536.24 1261.85C538.321 1261.85 540.402 1263.89 540.402 1265.93Z" fill="#E5E5E5"/>
<path d="M628.504 1265.93C628.504 1267.96 626.423 1270 624.341 1270C622.26 1270 620.179 1267.96 620.179 1265.93C620.179 1263.89 622.26 1261.85 624.341 1261.85C627.116 1261.85 628.504 1263.89 628.504 1265.93Z" fill="#E5E5E5"/>
<path d="M717.299 1265.93C717.299 1267.96 715.218 1270 713.137 1270C711.056 1270 708.974 1267.96 708.974 1265.93C708.974 1263.89 711.056 1261.85 713.137 1261.85C715.218 1261.85 717.299 1263.89 717.299 1265.93Z" fill="#E5E5E5"/>
<path d="M806.094 1265.93C806.094 1267.96 804.013 1270 801.932 1270C799.851 1270 797.77 1267.96 797.77 1265.93C797.77 1263.89 799.851 1261.85 801.932 1261.85C804.013 1261.85 806.094 1263.89 806.094 1265.93Z" fill="#E5E5E5"/>
<path d="M894.889 1265.93C894.889 1267.96 892.808 1270 890.727 1270C888.646 1270 886.565 1267.96 886.565 1265.93C886.565 1263.89 888.646 1261.85 890.727 1261.85C892.808 1261.85 894.889 1263.89 894.889 1265.93Z" fill="#E5E5E5"/>
<path d="M982.991 1265.93C982.991 1267.96 980.91 1270 978.829 1270C976.748 1270 974.667 1267.96 974.667 1265.93C974.667 1263.89 976.748 1261.85 978.829 1261.85C981.604 1261.85 982.991 1263.89 982.991 1265.93Z" fill="#E5E5E5"/>
<path d="M1051.72 312.073C1051.72 314.789 1050.48 316.147 1048.01 316.147C1045.54 316.147 1044.3 314.789 1044.3 312.073C1044.3 310.037 1046.15 308 1048.01 308C1049.86 308 1051.72 310.037 1051.72 312.073Z" fill="#E5E5E5"/>
<path d="M1130.82 312.073C1130.82 314.11 1128.97 316.147 1127.11 316.147C1125.26 316.147 1123.4 314.11 1123.4 312.073C1123.4 310.037 1124.64 308 1127.11 308C1128.97 308 1130.82 310.037 1130.82 312.073Z" fill="#E5E5E5"/>
<path d="M1209.92 312.073C1209.92 314.11 1208.07 316.147 1206.22 316.147C1204.36 316.147 1202.51 314.11 1202.51 312.073C1202.51 310.037 1204.36 308 1206.22 308C1208.07 308 1209.92 310.037 1209.92 312.073Z" fill="#E5E5E5"/>
<path d="M1289.03 312.073C1289.03 314.11 1287.17 316.147 1285.32 316.147C1283.46 316.147 1281.61 314.11 1281.61 312.073C1281.61 310.037 1283.46 308 1285.32 308C1287.17 308 1289.03 310.037 1289.03 312.073Z" fill="#E5E5E5"/>
<path d="M1367.51 312.073C1367.51 314.11 1365.66 316.147 1363.8 316.147C1361.95 316.147 1360.1 314.11 1360.1 312.073C1360.1 310.037 1361.95 308 1363.8 308C1365.66 308 1367.51 310.037 1367.51 312.073Z" fill="#E5E5E5"/>
<path d="M1446.62 312.073C1446.62 314.11 1444.76 316.147 1442.91 316.147C1441.05 316.147 1439.2 314.789 1439.2 312.073C1439.2 310.037 1441.05 308 1442.91 308C1444.76 308 1446.62 310.037 1446.62 312.073Z" fill="#E5E5E5"/>
<path d="M1525.72 312.073C1525.72 314.11 1523.86 316.147 1522.01 316.147C1520.16 316.147 1517.68 314.789 1517.68 312.073C1517.68 310.037 1519.54 308 1521.39 308C1523.25 308 1525.72 310.037 1525.72 312.073Z" fill="#E5E5E5"/>
<path d="M1604.2 312.073C1604.2 314.11 1602.35 316.147 1600.5 316.147C1598.64 316.147 1596.79 314.11 1596.79 312.073C1596.79 310.037 1598.64 308 1600.5 308C1602.97 308 1604.2 310.037 1604.2 312.073Z" fill="#E5E5E5"/>
<path d="M1683.31 312.073C1683.31 314.11 1681.45 316.147 1679.6 316.147C1677.75 316.147 1675.89 314.11 1675.89 312.073C1675.89 310.037 1677.75 308 1679.6 308C1681.45 308 1683.31 310.037 1683.31 312.073Z" fill="#E5E5E5"/>
<path d="M1762.41 312.073C1762.41 314.11 1760.56 316.147 1758.7 316.147C1756.85 316.147 1755 314.11 1755 312.073C1755 310.037 1756.85 308 1758.7 308C1760.56 308 1762.41 310.037 1762.41 312.073Z" fill="#E5E5E5"/>
<path d="M1841.51 312.073C1841.51 314.11 1839.66 316.147 1837.81 316.147C1835.95 316.147 1834.1 314.11 1834.1 312.073C1834.1 310.037 1835.95 308 1837.81 308C1839.66 308 1841.51 310.037 1841.51 312.073Z" fill="#E5E5E5"/>
<path d="M1920 312.073C1920 314.11 1918.15 316.147 1916.29 316.147C1914.44 316.147 1912.58 314.11 1912.58 312.073C1912.58 310.037 1914.44 308 1916.29 308C1918.76 308 1920 310.037 1920 312.073Z" fill="#E5E5E5"/>
<path d="M1051.72 398.973C1051.72 401.01 1050.48 403.046 1048.01 403.046C1045.54 403.046 1044.3 401.01 1044.3 398.973C1044.3 396.936 1046.15 394.899 1048.01 394.899C1049.86 394.899 1051.72 396.257 1051.72 398.973Z" fill="#E5E5E5"/>
<path d="M1130.82 398.973C1130.82 401.01 1128.97 403.046 1127.11 403.046C1125.26 403.046 1123.4 401.01 1123.4 398.973C1123.4 396.936 1125.26 394.899 1127.11 394.899C1128.97 394.899 1130.82 396.257 1130.82 398.973Z" fill="#E5E5E5"/>
<path d="M1209.92 398.973C1209.92 401.01 1208.07 403.046 1206.22 403.046C1204.36 403.046 1202.51 401.01 1202.51 398.973C1202.51 396.936 1204.36 394.899 1206.22 394.899C1208.07 394.899 1209.92 396.257 1209.92 398.973Z" fill="#E5E5E5"/>
<path d="M1289.03 398.973C1289.03 401.01 1287.17 403.046 1285.32 403.046C1283.46 403.046 1281.61 401.01 1281.61 398.973C1281.61 396.936 1283.46 394.899 1285.32 394.899C1287.17 394.899 1289.03 396.257 1289.03 398.973Z" fill="#E5E5E5"/>
<path d="M1367.51 398.973C1367.51 401.01 1365.66 403.046 1363.8 403.046C1361.95 403.046 1360.1 401.01 1360.1 398.973C1360.1 396.936 1361.95 394.899 1363.8 394.899C1365.66 394.899 1367.51 396.257 1367.51 398.973Z" fill="#E5E5E5"/>
<path d="M1446.62 398.973C1446.62 401.01 1444.76 403.046 1442.91 403.046C1441.05 403.046 1439.2 401.01 1439.2 398.973C1439.2 396.936 1441.05 394.899 1442.91 394.899C1444.76 394.899 1446.62 396.257 1446.62 398.973Z" fill="#E5E5E5"/>
<path d="M1525.72 398.973C1525.72 401.01 1523.87 403.046 1522.01 403.046C1520.16 403.046 1518.3 401.01 1518.3 398.973C1518.3 396.936 1520.16 394.899 1522.01 394.899C1523.87 394.899 1525.72 396.257 1525.72 398.973Z" fill="#E5E5E5"/>
<path d="M1604.2 398.973C1604.2 401.01 1602.35 403.046 1600.5 403.046C1598.64 403.046 1596.79 401.01 1596.79 398.973C1596.79 396.936 1598.64 394.899 1600.5 394.899C1602.97 394.899 1604.2 396.257 1604.2 398.973Z" fill="#E5E5E5"/>
<path d="M1683.31 398.973C1683.31 401.01 1681.45 403.046 1679.6 403.046C1677.75 403.046 1675.89 401.01 1675.89 398.973C1675.89 396.936 1677.75 394.899 1679.6 394.899C1681.45 394.899 1683.31 396.257 1683.31 398.973Z" fill="#E5E5E5"/>
<path d="M1762.41 398.973C1762.41 401.01 1760.56 403.046 1758.7 403.046C1756.85 403.046 1755 401.01 1755 398.973C1755 396.936 1756.85 394.899 1758.7 394.899C1760.56 394.899 1762.41 396.257 1762.41 398.973Z" fill="#E5E5E5"/>
<path d="M1841.51 398.973C1841.51 401.01 1839.66 403.046 1837.81 403.046C1835.95 403.046 1834.1 401.01 1834.1 398.973C1834.1 396.936 1835.95 394.899 1837.81 394.899C1839.66 394.899 1841.51 396.257 1841.51 398.973Z" fill="#E5E5E5"/>
<path d="M1920 398.973C1920 401.01 1918.15 403.046 1916.29 403.046C1914.44 403.046 1912.58 401.01 1912.58 398.973C1912.58 396.936 1914.44 394.899 1916.29 394.899C1918.76 394.899 1920 396.257 1920 398.973Z" fill="#E5E5E5"/>
<path d="M1051.72 485.872C1051.72 487.909 1049.86 489.946 1048.01 489.946C1046.15 489.946 1044.3 487.909 1044.3 485.872C1044.3 483.836 1046.15 481.799 1048.01 481.799C1049.86 481.799 1051.72 483.157 1051.72 485.872Z" fill="#E5E5E5"/>
<path d="M1130.82 485.871C1130.82 487.908 1128.97 489.945 1127.11 489.945C1125.26 489.945 1123.4 487.908 1123.4 485.871C1123.4 483.835 1125.26 481.798 1127.11 481.798C1128.97 481.119 1130.82 483.156 1130.82 485.871Z" fill="#E5E5E5"/>
<path d="M1209.92 485.871C1209.92 487.908 1208.07 489.945 1206.22 489.945C1204.36 489.945 1202.51 487.908 1202.51 485.871C1202.51 483.835 1204.36 481.798 1206.22 481.798C1208.07 481.119 1209.92 483.156 1209.92 485.871Z" fill="#E5E5E5"/>
<path d="M1289.03 485.871C1289.03 487.908 1287.17 489.945 1285.32 489.945C1283.46 489.945 1281.61 487.908 1281.61 485.871C1281.61 483.835 1283.46 481.798 1285.32 481.798C1287.17 481.119 1289.03 483.156 1289.03 485.871Z" fill="#E5E5E5"/>
<path d="M1367.51 485.871C1367.51 487.908 1365.66 489.945 1363.8 489.945C1361.95 489.945 1360.1 487.908 1360.1 485.871C1360.1 483.835 1361.95 481.798 1363.8 481.798C1365.66 481.119 1367.51 483.156 1367.51 485.871Z" fill="#E5E5E5"/>
<path d="M1446.62 485.872C1446.62 487.909 1444.76 489.946 1442.91 489.946C1441.05 489.946 1439.2 487.909 1439.2 485.872C1439.2 483.836 1441.05 481.799 1442.91 481.799C1444.76 481.799 1446.62 483.157 1446.62 485.872Z" fill="#E5E5E5"/>
<path d="M1525.72 485.872C1525.72 487.909 1523.87 489.946 1522.01 489.946C1520.16 489.946 1518.3 487.909 1518.3 485.872C1518.3 483.836 1520.16 481.799 1522.01 481.799C1523.87 481.799 1525.72 483.157 1525.72 485.872Z" fill="#E5E5E5"/>
<path d="M1604.2 485.871C1604.2 487.908 1602.35 489.945 1600.5 489.945C1598.64 489.945 1596.79 487.908 1596.79 485.871C1596.79 483.835 1598.64 481.798 1600.5 481.798C1602.97 481.119 1604.2 483.156 1604.2 485.871Z" fill="#E5E5E5"/>
<path d="M1683.31 485.871C1683.31 487.908 1681.45 489.945 1679.6 489.945C1677.75 489.945 1675.89 487.908 1675.89 485.871C1675.89 483.835 1677.75 481.798 1679.6 481.798C1681.45 481.119 1683.31 483.156 1683.31 485.871Z" fill="#E5E5E5"/>
<path d="M1762.41 485.871C1762.41 487.908 1760.56 489.945 1758.7 489.945C1756.85 489.945 1755 487.908 1755 485.871C1755 483.835 1756.85 481.798 1758.7 481.798C1760.56 481.119 1762.41 483.156 1762.41 485.871Z" fill="#E5E5E5"/>
<path d="M1841.51 485.871C1841.51 487.908 1839.66 489.945 1837.81 489.945C1835.95 489.945 1834.1 487.908 1834.1 485.871C1834.1 483.835 1835.95 481.798 1837.81 481.798C1839.66 481.119 1841.51 483.156 1841.51 485.871Z" fill="#E5E5E5"/>
<path d="M1920 485.871C1920 487.908 1918.15 489.945 1916.29 489.945C1914.44 489.945 1912.58 487.908 1912.58 485.871C1912.58 483.835 1914.44 481.798 1916.29 481.798C1918.76 481.119 1920 483.156 1920 485.871Z" fill="#E5E5E5"/>
<path d="M1051.72 572.092C1051.72 574.129 1049.86 576.165 1048.01 576.165C1046.15 576.165 1044.3 574.808 1044.3 572.092C1044.3 570.055 1046.15 568.019 1048.01 568.019C1049.86 568.019 1051.72 570.055 1051.72 572.092Z" fill="#E5E5E5"/>
<path d="M1130.82 572.092C1130.82 574.129 1128.97 576.165 1127.11 576.165C1125.26 576.165 1123.4 574.129 1123.4 572.092C1123.4 570.055 1125.26 568.019 1127.11 568.019C1128.97 568.019 1130.82 570.055 1130.82 572.092Z" fill="#E5E5E5"/>
<path d="M1209.92 572.092C1209.92 574.129 1208.07 576.165 1206.22 576.165C1204.36 576.165 1202.51 574.129 1202.51 572.092C1202.51 570.055 1204.36 568.019 1206.22 568.019C1208.07 568.019 1209.92 570.055 1209.92 572.092Z" fill="#E5E5E5"/>
<path d="M1289.03 572.092C1289.03 574.129 1287.17 576.165 1285.32 576.165C1283.46 576.165 1281.61 574.129 1281.61 572.092C1281.61 570.055 1283.46 568.019 1285.32 568.019C1287.17 568.019 1289.03 570.055 1289.03 572.092Z" fill="#E5E5E5"/>
<path d="M1367.51 572.092C1367.51 574.129 1365.66 576.165 1363.8 576.165C1361.95 576.165 1360.1 574.129 1360.1 572.092C1360.1 570.055 1361.95 568.019 1363.8 568.019C1365.66 568.019 1367.51 570.055 1367.51 572.092Z" fill="#E5E5E5"/>
<path d="M1446.62 572.092C1446.62 574.129 1444.76 576.165 1442.91 576.165C1441.05 576.165 1439.2 574.129 1439.2 572.092C1439.2 570.055 1441.05 568.019 1442.91 568.019C1444.76 568.019 1446.62 570.055 1446.62 572.092Z" fill="#E5E5E5"/>
<path d="M1525.72 572.092C1525.72 574.129 1523.87 576.165 1522.01 576.165C1520.16 576.165 1518.3 574.129 1518.3 572.092C1518.3 570.055 1520.16 568.019 1522.01 568.019C1523.87 568.019 1525.72 570.055 1525.72 572.092Z" fill="#E5E5E5"/>
<path d="M1604.2 572.092C1604.2 574.129 1602.35 576.165 1600.5 576.165C1598.64 576.165 1596.79 574.129 1596.79 572.092C1596.79 570.055 1598.64 568.019 1600.5 568.019C1602.97 568.019 1604.2 570.055 1604.2 572.092Z" fill="#E5E5E5"/>
<path d="M1683.31 572.092C1683.31 574.129 1681.45 576.165 1679.6 576.165C1677.75 576.165 1675.89 574.129 1675.89 572.092C1675.89 570.055 1677.75 568.019 1679.6 568.019C1681.45 568.019 1683.31 570.055 1683.31 572.092Z" fill="#E5E5E5"/>
<path d="M1762.41 572.092C1762.41 574.129 1760.56 576.165 1758.7 576.165C1756.85 576.165 1755 574.129 1755 572.092C1755 570.055 1756.85 568.019 1758.7 568.019C1760.56 568.019 1762.41 570.055 1762.41 572.092Z" fill="#E5E5E5"/>
<path d="M1841.51 572.092C1841.51 574.129 1839.66 576.165 1837.81 576.165C1835.95 576.165 1834.1 574.129 1834.1 572.092C1834.1 570.055 1835.95 568.019 1837.81 568.019C1839.66 568.019 1841.51 570.055 1841.51 572.092Z" fill="#E5E5E5"/>
<path d="M1920 572.092C1920 574.129 1918.15 576.165 1916.29 576.165C1914.44 576.165 1912.58 574.129 1912.58 572.092C1912.58 570.055 1914.44 568.019 1916.29 568.019C1918.76 568.019 1920 570.055 1920 572.092Z" fill="#E5E5E5"/>
<path d="M1051.72 658.991C1051.72 661.028 1049.86 663.065 1048.01 663.065C1046.15 663.065 1044.3 661.028 1044.3 658.991C1044.3 656.954 1046.15 654.918 1048.01 654.918C1049.86 654.918 1051.72 656.954 1051.72 658.991Z" fill="#E5E5E5"/>
<path d="M1130.82 658.991C1130.82 661.028 1128.97 663.065 1127.11 663.065C1125.26 663.065 1123.4 661.028 1123.4 658.991C1123.4 656.954 1125.26 654.918 1127.11 654.918C1128.97 654.918 1130.82 656.954 1130.82 658.991Z" fill="#E5E5E5"/>
<path d="M1209.92 658.991C1209.92 661.028 1208.07 663.065 1206.22 663.065C1204.36 663.065 1202.51 661.028 1202.51 658.991C1202.51 656.954 1204.36 654.918 1206.22 654.918C1208.07 654.918 1209.92 656.954 1209.92 658.991Z" fill="#E5E5E5"/>
<path d="M1289.03 658.991C1289.03 661.028 1287.17 663.065 1285.32 663.065C1283.46 663.065 1281.61 661.028 1281.61 658.991C1281.61 656.954 1283.46 654.918 1285.32 654.918C1287.17 654.918 1289.03 656.954 1289.03 658.991Z" fill="#E5E5E5"/>
<path d="M1367.51 658.991C1367.51 661.028 1365.66 663.065 1363.8 663.065C1361.95 663.065 1360.1 661.028 1360.1 658.991C1360.1 656.954 1361.95 654.918 1363.8 654.918C1365.66 654.918 1367.51 656.954 1367.51 658.991Z" fill="#E5E5E5"/>
<path d="M1446.62 658.991C1446.62 661.028 1444.76 663.065 1442.91 663.065C1441.05 663.065 1439.2 661.028 1439.2 658.991C1439.2 656.954 1441.05 654.918 1442.91 654.918C1444.76 654.918 1446.62 656.954 1446.62 658.991Z" fill="#E5E5E5"/>
<path d="M1525.72 658.991C1525.72 661.028 1523.87 663.065 1522.01 663.065C1520.16 663.065 1518.3 661.028 1518.3 658.991C1518.3 656.954 1520.16 654.918 1522.01 654.918C1523.87 654.918 1525.72 656.954 1525.72 658.991Z" fill="#E5E5E5"/>
<path d="M1604.2 658.991C1604.2 661.028 1602.35 663.065 1600.5 663.065C1598.64 663.065 1596.79 661.028 1596.79 658.991C1596.79 656.954 1598.64 654.918 1600.5 654.918C1602.97 654.918 1604.2 656.954 1604.2 658.991Z" fill="#E5E5E5"/>
<path d="M1683.31 658.991C1683.31 661.028 1681.45 663.065 1679.6 663.065C1677.75 663.065 1675.89 661.028 1675.89 658.991C1675.89 656.954 1677.75 654.918 1679.6 654.918C1681.45 654.918 1683.31 656.954 1683.31 658.991Z" fill="#E5E5E5"/>
<path d="M1762.41 658.991C1762.41 661.028 1760.56 663.065 1758.7 663.065C1756.85 663.065 1755 661.028 1755 658.991C1755 656.954 1756.85 654.918 1758.7 654.918C1760.56 654.918 1762.41 656.954 1762.41 658.991Z" fill="#E5E5E5"/>
<path d="M1841.51 658.991C1841.51 661.028 1839.66 663.065 1837.81 663.065C1835.95 663.065 1834.1 661.028 1834.1 658.991C1834.1 656.954 1835.95 654.918 1837.81 654.918C1839.66 654.918 1841.51 656.954 1841.51 658.991Z" fill="#E5E5E5"/>
<path d="M1920 658.991C1920 661.028 1918.15 663.065 1916.29 663.065C1914.44 663.065 1912.58 661.028 1912.58 658.991C1912.58 656.954 1914.44 654.918 1916.29 654.918C1918.76 654.918 1920 656.954 1920 658.991Z" fill="#E5E5E5"/>
<path d="M1051.72 745.889C1051.72 747.926 1049.86 749.963 1048.01 749.963C1046.15 749.963 1044.3 747.926 1044.3 745.889C1044.3 743.853 1046.15 741.816 1048.01 741.816C1049.86 741.816 1051.72 743.174 1051.72 745.889Z" fill="#E5E5E5"/>
<path d="M1130.82 745.889C1130.82 747.926 1128.97 749.963 1127.11 749.963C1125.26 749.963 1123.4 747.926 1123.4 745.889C1123.4 743.853 1125.26 741.816 1127.11 741.816C1128.97 741.816 1130.82 743.174 1130.82 745.889Z" fill="#E5E5E5"/>
<path d="M1209.92 745.889C1209.92 747.926 1208.07 749.963 1206.22 749.963C1204.36 749.963 1202.51 747.926 1202.51 745.889C1202.51 743.853 1204.36 741.816 1206.22 741.816C1208.07 741.816 1209.92 743.174 1209.92 745.889Z" fill="#E5E5E5"/>
<path d="M1289.03 745.889C1289.03 747.926 1287.17 749.963 1285.32 749.963C1283.46 749.963 1281.61 747.926 1281.61 745.889C1281.61 743.853 1283.46 741.816 1285.32 741.816C1287.17 741.816 1289.03 743.174 1289.03 745.889Z" fill="#E5E5E5"/>
<path d="M1367.51 745.889C1367.51 747.926 1365.66 749.963 1363.8 749.963C1361.95 749.963 1360.1 747.926 1360.1 745.889C1360.1 743.853 1361.95 741.816 1363.8 741.816C1365.66 741.816 1367.51 743.174 1367.51 745.889Z" fill="#E5E5E5"/>
<path d="M1446.62 745.889C1446.62 747.926 1444.76 749.963 1442.91 749.963C1441.05 749.963 1439.2 747.926 1439.2 745.889C1439.2 743.853 1441.05 741.816 1442.91 741.816C1444.76 741.816 1446.62 743.174 1446.62 745.889Z" fill="#E5E5E5"/>
<path d="M1525.72 745.889C1525.72 747.926 1523.87 749.963 1522.01 749.963C1520.16 749.963 1518.3 747.926 1518.3 745.889C1518.3 743.853 1520.16 741.816 1522.01 741.816C1523.87 741.816 1525.72 743.174 1525.72 745.889Z" fill="#E5E5E5"/>
<path d="M1604.2 745.889C1604.2 747.926 1602.35 749.963 1600.5 749.963C1598.64 749.963 1596.79 747.926 1596.79 745.889C1596.79 743.853 1598.64 741.816 1600.5 741.816C1602.97 741.816 1604.2 743.174 1604.2 745.889Z" fill="#E5E5E5"/>
<path d="M1683.31 745.889C1683.31 747.926 1681.45 749.963 1679.6 749.963C1677.75 749.963 1675.89 747.926 1675.89 745.889C1675.89 743.853 1677.75 741.816 1679.6 741.816C1681.45 741.816 1683.31 743.174 1683.31 745.889Z" fill="#E5E5E5"/>
<path d="M1762.41 745.889C1762.41 747.926 1760.56 749.963 1758.7 749.963C1756.85 749.963 1755 747.926 1755 745.889C1755 743.853 1756.85 741.816 1758.7 741.816C1760.56 741.816 1762.41 743.174 1762.41 745.889Z" fill="#E5E5E5"/>
<path d="M1841.51 745.889C1841.51 747.926 1839.66 749.963 1837.81 749.963C1835.95 749.963 1834.1 747.926 1834.1 745.889C1834.1 743.853 1835.95 741.816 1837.81 741.816C1839.66 741.816 1841.51 743.174 1841.51 745.889Z" fill="#E5E5E5"/>
<path d="M1920 745.889C1920 747.926 1918.15 749.963 1916.29 749.963C1914.44 749.963 1912.58 747.926 1912.58 745.889C1912.58 743.853 1914.44 741.816 1916.29 741.816C1918.76 741.816 1920 743.174 1920 745.889Z" fill="#E5E5E5"/>
<path d="M1051.72 832.789C1051.72 834.826 1049.86 836.862 1048.01 836.862C1046.15 836.862 1044.3 834.826 1044.3 832.789C1044.3 830.752 1046.15 828.715 1048.01 828.715C1049.86 828.715 1051.72 830.073 1051.72 832.789Z" fill="#E5E5E5"/>
<path d="M1130.82 832.789C1130.82 834.826 1128.97 836.863 1127.11 836.863C1125.26 836.863 1123.4 834.826 1123.4 832.789C1123.4 830.753 1125.26 828.716 1127.11 828.716C1128.97 828.037 1130.82 830.074 1130.82 832.789Z" fill="#E5E5E5"/>
<path d="M1209.92 832.789C1209.92 834.826 1208.07 836.863 1206.22 836.863C1204.36 836.863 1202.51 834.826 1202.51 832.789C1202.51 830.753 1204.36 828.716 1206.22 828.716C1208.07 828.037 1209.92 830.074 1209.92 832.789Z" fill="#E5E5E5"/>
<path d="M1289.03 832.789C1289.03 834.826 1287.17 836.863 1285.32 836.863C1283.46 836.863 1281.61 834.826 1281.61 832.789C1281.61 830.753 1283.46 828.716 1285.32 828.716C1287.17 828.037 1289.03 830.074 1289.03 832.789Z" fill="#E5E5E5"/>
<path d="M1367.51 832.789C1367.51 834.826 1365.66 836.863 1363.8 836.863C1361.95 836.863 1360.1 834.826 1360.1 832.789C1360.1 830.753 1361.95 828.716 1363.8 828.716C1365.66 828.037 1367.51 830.074 1367.51 832.789Z" fill="#E5E5E5"/>
<path d="M1446.62 832.789C1446.62 834.826 1444.76 836.862 1442.91 836.862C1441.05 836.862 1439.2 834.826 1439.2 832.789C1439.2 830.752 1441.05 828.715 1442.91 828.715C1444.76 828.715 1446.62 830.073 1446.62 832.789Z" fill="#E5E5E5"/>
<path d="M1525.72 832.789C1525.72 834.826 1523.87 836.862 1522.01 836.862C1520.16 836.862 1518.3 834.826 1518.3 832.789C1518.3 830.752 1520.16 828.715 1522.01 828.715C1523.87 828.715 1525.72 830.073 1525.72 832.789Z" fill="#E5E5E5"/>
<path d="M1604.2 832.789C1604.2 834.826 1602.35 836.863 1600.5 836.863C1598.64 836.863 1596.79 834.826 1596.79 832.789C1596.79 830.753 1598.64 828.716 1600.5 828.716C1602.97 828.037 1604.2 830.074 1604.2 832.789Z" fill="#E5E5E5"/>
<path d="M1683.31 832.789C1683.31 834.826 1681.45 836.863 1679.6 836.863C1677.75 836.863 1675.89 834.826 1675.89 832.789C1675.89 830.753 1677.75 828.716 1679.6 828.716C1681.45 828.037 1683.31 830.074 1683.31 832.789Z" fill="#E5E5E5"/>
<path d="M1762.41 832.789C1762.41 834.826 1760.56 836.863 1758.7 836.863C1756.85 836.863 1755 834.826 1755 832.789C1755 830.753 1756.85 828.716 1758.7 828.716C1760.56 828.037 1762.41 830.074 1762.41 832.789Z" fill="#E5E5E5"/>
<path d="M1841.51 832.789C1841.51 834.826 1839.66 836.863 1837.81 836.863C1835.95 836.863 1834.1 834.826 1834.1 832.789C1834.1 830.753 1835.95 828.716 1837.81 828.716C1839.66 828.037 1841.51 830.074 1841.51 832.789Z" fill="#E5E5E5"/>
<path d="M1920 832.789C1920 834.826 1918.15 836.863 1916.29 836.863C1914.44 836.863 1912.58 834.826 1912.58 832.789C1912.58 830.753 1914.44 828.716 1916.29 828.716C1918.76 828.037 1920 830.074 1920 832.789Z" fill="#E5E5E5"/>
<path d="M1051.72 919.009C1051.72 921.045 1049.86 923.082 1048.01 923.082C1046.15 923.082 1044.3 921.724 1044.3 919.009C1044.3 916.972 1046.15 914.935 1048.01 914.935C1049.86 914.935 1051.72 916.972 1051.72 919.009Z" fill="#E5E5E5"/>
<path d="M1130.82 919.009C1130.82 921.045 1128.97 923.082 1127.11 923.082C1125.26 923.082 1123.4 921.045 1123.4 919.009C1123.4 916.972 1125.26 914.935 1127.11 914.935C1128.97 914.935 1130.82 916.972 1130.82 919.009Z" fill="#E5E5E5"/>
<path d="M1209.92 919.009C1209.92 921.045 1208.07 923.082 1206.22 923.082C1204.36 923.082 1202.51 921.045 1202.51 919.009C1202.51 916.972 1204.36 914.935 1206.22 914.935C1208.07 914.935 1209.92 916.972 1209.92 919.009Z" fill="#E5E5E5"/>
<path d="M1289.03 919.009C1289.03 921.045 1287.17 923.082 1285.32 923.082C1283.46 923.082 1281.61 921.045 1281.61 919.009C1281.61 916.972 1283.46 914.935 1285.32 914.935C1287.17 914.935 1289.03 916.972 1289.03 919.009Z" fill="#E5E5E5"/>
<path d="M1367.51 919.009C1367.51 921.045 1365.66 923.082 1363.8 923.082C1361.95 923.082 1360.1 921.045 1360.1 919.009C1360.1 916.972 1361.95 914.935 1363.8 914.935C1365.66 914.935 1367.51 916.972 1367.51 919.009Z" fill="#E5E5E5"/>
<path d="M1446.62 919.009C1446.62 921.045 1444.76 923.082 1442.91 923.082C1441.05 923.082 1439.2 921.045 1439.2 919.009C1439.2 916.972 1441.05 914.935 1442.91 914.935C1444.76 914.935 1446.62 916.972 1446.62 919.009Z" fill="#E5E5E5"/>
<path d="M1525.72 919.009C1525.72 921.045 1523.87 923.082 1522.01 923.082C1520.16 923.082 1518.3 921.045 1518.3 919.009C1518.3 916.972 1520.16 914.935 1522.01 914.935C1523.87 914.935 1525.72 916.972 1525.72 919.009Z" fill="#E5E5E5"/>
<path d="M1604.2 919.009C1604.2 921.045 1602.35 923.082 1600.5 923.082C1598.64 923.082 1596.79 921.045 1596.79 919.009C1596.79 916.972 1598.64 914.935 1600.5 914.935C1602.97 914.935 1604.2 916.972 1604.2 919.009Z" fill="#E5E5E5"/>
<path d="M1683.31 919.009C1683.31 921.045 1681.45 923.082 1679.6 923.082C1677.75 923.082 1675.89 921.045 1675.89 919.009C1675.89 916.972 1677.75 914.935 1679.6 914.935C1681.45 914.935 1683.31 916.972 1683.31 919.009Z" fill="#E5E5E5"/>
<path d="M1762.41 919.009C1762.41 921.045 1760.56 923.082 1758.7 923.082C1756.85 923.082 1755 921.045 1755 919.009C1755 916.972 1756.85 914.935 1758.7 914.935C1760.56 914.935 1762.41 916.972 1762.41 919.009Z" fill="#E5E5E5"/>
<path d="M1841.51 919.009C1841.51 921.045 1839.66 923.082 1837.81 923.082C1835.95 923.082 1834.1 921.045 1834.1 919.009C1834.1 916.972 1835.95 914.935 1837.81 914.935C1839.66 914.935 1841.51 916.972 1841.51 919.009Z" fill="#E5E5E5"/>
<path d="M1920 919.009C1920 921.045 1918.15 923.082 1916.29 923.082C1914.44 923.082 1912.58 921.045 1912.58 919.009C1912.58 916.972 1914.44 914.935 1916.29 914.935C1918.76 914.935 1920 916.972 1920 919.009Z" fill="#E5E5E5"/>
<path d="M1051.72 1005.91C1051.72 1007.94 1049.86 1009.98 1048.01 1009.98C1046.15 1009.98 1044.3 1007.94 1044.3 1005.91C1044.3 1003.87 1046.15 1001.83 1048.01 1001.83C1049.86 1001.83 1051.72 1003.87 1051.72 1005.91Z" fill="#E5E5E5"/>
<path d="M1130.82 1005.91C1130.82 1007.94 1128.97 1009.98 1127.11 1009.98C1125.26 1009.98 1123.4 1007.94 1123.4 1005.91C1123.4 1003.87 1125.26 1001.83 1127.11 1001.83C1128.97 1001.83 1130.82 1003.87 1130.82 1005.91Z" fill="#E5E5E5"/>
<path d="M1209.92 1005.91C1209.92 1007.94 1208.07 1009.98 1206.22 1009.98C1204.36 1009.98 1202.51 1007.94 1202.51 1005.91C1202.51 1003.87 1204.36 1001.83 1206.22 1001.83C1208.07 1001.83 1209.92 1003.87 1209.92 1005.91Z" fill="#E5E5E5"/>
<path d="M1289.03 1005.91C1289.03 1007.94 1287.17 1009.98 1285.32 1009.98C1283.46 1009.98 1281.61 1007.94 1281.61 1005.91C1281.61 1003.87 1283.46 1001.83 1285.32 1001.83C1287.17 1001.83 1289.03 1003.87 1289.03 1005.91Z" fill="#E5E5E5"/>
<path d="M1367.51 1005.91C1367.51 1007.94 1365.66 1009.98 1363.8 1009.98C1361.95 1009.98 1360.1 1007.94 1360.1 1005.91C1360.1 1003.87 1361.95 1001.83 1363.8 1001.83C1365.66 1001.83 1367.51 1003.87 1367.51 1005.91Z" fill="#E5E5E5"/>
<path d="M1446.62 1005.91C1446.62 1007.94 1444.76 1009.98 1442.91 1009.98C1441.05 1009.98 1439.2 1007.94 1439.2 1005.91C1439.2 1003.87 1441.05 1001.83 1442.91 1001.83C1444.76 1001.83 1446.62 1003.87 1446.62 1005.91Z" fill="#E5E5E5"/>
<path d="M1525.72 1005.91C1525.72 1007.94 1523.87 1009.98 1522.01 1009.98C1520.16 1009.98 1518.3 1007.94 1518.3 1005.91C1518.3 1003.87 1520.16 1001.83 1522.01 1001.83C1523.87 1001.83 1525.72 1003.87 1525.72 1005.91Z" fill="#E5E5E5"/>
<path d="M1604.2 1005.91C1604.2 1007.94 1602.35 1009.98 1600.5 1009.98C1598.64 1009.98 1596.79 1007.94 1596.79 1005.91C1596.79 1003.87 1598.64 1001.83 1600.5 1001.83C1602.97 1001.83 1604.2 1003.87 1604.2 1005.91Z" fill="#E5E5E5"/>
<path d="M1683.31 1005.91C1683.31 1007.94 1681.45 1009.98 1679.6 1009.98C1677.75 1009.98 1675.89 1007.94 1675.89 1005.91C1675.89 1003.87 1677.75 1001.83 1679.6 1001.83C1681.45 1001.83 1683.31 1003.87 1683.31 1005.91Z" fill="#E5E5E5"/>
<path d="M1762.41 1005.91C1762.41 1007.94 1760.56 1009.98 1758.7 1009.98C1756.85 1009.98 1755 1007.94 1755 1005.91C1755 1003.87 1756.85 1001.83 1758.7 1001.83C1760.56 1001.83 1762.41 1003.87 1762.41 1005.91Z" fill="#E5E5E5"/>
<path d="M1841.51 1005.91C1841.51 1007.94 1839.66 1009.98 1837.81 1009.98C1835.95 1009.98 1834.1 1007.94 1834.1 1005.91C1834.1 1003.87 1835.95 1001.83 1837.81 1001.83C1839.66 1001.83 1841.51 1003.87 1841.51 1005.91Z" fill="#E5E5E5"/>
<path d="M1920 1005.91C1920 1007.94 1918.15 1009.98 1916.29 1009.98C1914.44 1009.98 1912.58 1007.94 1912.58 1005.91C1912.58 1003.87 1914.44 1001.83 1916.29 1001.83C1918.76 1001.83 1920 1003.87 1920 1005.91Z" fill="#E5E5E5"/>
<path d="M1051.72 1092.81C1051.72 1094.84 1049.86 1096.88 1048.01 1096.88C1046.15 1096.88 1044.3 1094.84 1044.3 1092.81C1044.3 1090.77 1046.15 1088.73 1048.01 1088.73C1049.86 1088.73 1051.72 1090.09 1051.72 1092.81Z" fill="#E5E5E5"/>
<path d="M1130.82 1092.81C1130.82 1094.84 1128.97 1096.88 1127.11 1096.88C1125.26 1096.88 1123.4 1094.84 1123.4 1092.81C1123.4 1090.77 1125.26 1088.73 1127.11 1088.73C1128.97 1088.73 1130.82 1090.09 1130.82 1092.81Z" fill="#E5E5E5"/>
<path d="M1209.92 1092.81C1209.92 1094.84 1208.07 1096.88 1206.22 1096.88C1204.36 1096.88 1202.51 1094.84 1202.51 1092.81C1202.51 1090.77 1204.36 1088.73 1206.22 1088.73C1208.07 1088.73 1209.92 1090.09 1209.92 1092.81Z" fill="#E5E5E5"/>
<path d="M1289.03 1092.81C1289.03 1094.84 1287.17 1096.88 1285.32 1096.88C1283.46 1096.88 1281.61 1094.84 1281.61 1092.81C1281.61 1090.77 1283.46 1088.73 1285.32 1088.73C1287.17 1088.73 1289.03 1090.09 1289.03 1092.81Z" fill="#E5E5E5"/>
<path d="M1367.51 1092.81C1367.51 1094.84 1365.66 1096.88 1363.8 1096.88C1361.95 1096.88 1360.1 1094.84 1360.1 1092.81C1360.1 1090.77 1361.95 1088.73 1363.8 1088.73C1365.66 1088.73 1367.51 1090.09 1367.51 1092.81Z" fill="#E5E5E5"/>
<path d="M1446.62 1092.81C1446.62 1094.84 1444.76 1096.88 1442.91 1096.88C1441.05 1096.88 1439.2 1094.84 1439.2 1092.81C1439.2 1090.77 1441.05 1088.73 1442.91 1088.73C1444.76 1088.73 1446.62 1090.09 1446.62 1092.81Z" fill="#E5E5E5"/>
<path d="M1525.72 1092.81C1525.72 1094.84 1523.87 1096.88 1522.01 1096.88C1520.16 1096.88 1518.3 1094.84 1518.3 1092.81C1518.3 1090.77 1520.16 1088.73 1522.01 1088.73C1523.87 1088.73 1525.72 1090.09 1525.72 1092.81Z" fill="#E5E5E5"/>
<path d="M1604.2 1092.81C1604.2 1094.84 1602.35 1096.88 1600.5 1096.88C1598.64 1096.88 1596.79 1094.84 1596.79 1092.81C1596.79 1090.77 1598.64 1088.73 1600.5 1088.73C1602.97 1088.73 1604.2 1090.09 1604.2 1092.81Z" fill="#E5E5E5"/>
<path d="M1683.31 1092.81C1683.31 1094.84 1681.45 1096.88 1679.6 1096.88C1677.75 1096.88 1675.89 1094.84 1675.89 1092.81C1675.89 1090.77 1677.75 1088.73 1679.6 1088.73C1681.45 1088.73 1683.31 1090.09 1683.31 1092.81Z" fill="#E5E5E5"/>
<path d="M1762.41 1092.81C1762.41 1094.84 1760.56 1096.88 1758.7 1096.88C1756.85 1096.88 1755 1094.84 1755 1092.81C1755 1090.77 1756.85 1088.73 1758.7 1088.73C1760.56 1088.73 1762.41 1090.09 1762.41 1092.81Z" fill="#E5E5E5"/>
<path d="M1841.51 1092.81C1841.51 1094.84 1839.66 1096.88 1837.81 1096.88C1835.95 1096.88 1834.1 1094.84 1834.1 1092.81C1834.1 1090.77 1835.95 1088.73 1837.81 1088.73C1839.66 1088.73 1841.51 1090.09 1841.51 1092.81Z" fill="#E5E5E5"/>
<path d="M1920 1092.81C1920 1094.84 1918.15 1096.88 1916.29 1096.88C1914.44 1096.88 1912.58 1094.84 1912.58 1092.81C1912.58 1090.77 1914.44 1088.73 1916.29 1088.73C1918.76 1088.73 1920 1090.09 1920 1092.81Z" fill="#E5E5E5"/>
<path d="M1051.72 1179.03C1051.72 1181.06 1049.86 1183.1 1048.01 1183.1C1046.15 1183.1 1044.3 1181.74 1044.3 1179.03C1044.3 1176.99 1046.15 1174.95 1048.01 1174.95C1049.86 1174.95 1051.72 1176.99 1051.72 1179.03Z" fill="#E5E5E5"/>
<path d="M1130.82 1179.03C1130.82 1181.06 1128.97 1183.1 1127.11 1183.1C1125.26 1183.1 1123.4 1181.06 1123.4 1179.03C1123.4 1176.99 1125.26 1174.95 1127.11 1174.95C1128.97 1174.95 1130.82 1176.99 1130.82 1179.03Z" fill="#E5E5E5"/>
<path d="M1209.92 1179.03C1209.92 1181.06 1208.07 1183.1 1206.22 1183.1C1204.36 1183.1 1202.51 1181.06 1202.51 1179.03C1202.51 1176.99 1204.36 1174.95 1206.22 1174.95C1208.07 1174.95 1209.92 1176.99 1209.92 1179.03Z" fill="#E5E5E5"/>
<path d="M1289.03 1179.03C1289.03 1181.06 1287.17 1183.1 1285.32 1183.1C1283.46 1183.1 1281.61 1181.06 1281.61 1179.03C1281.61 1176.99 1283.46 1174.95 1285.32 1174.95C1287.17 1174.95 1289.03 1176.99 1289.03 1179.03Z" fill="#E5E5E5"/>
<path d="M1367.51 1179.03C1367.51 1181.06 1365.66 1183.1 1363.8 1183.1C1361.95 1183.1 1360.1 1181.06 1360.1 1179.03C1360.1 1176.99 1361.95 1174.95 1363.8 1174.95C1365.66 1174.95 1367.51 1176.99 1367.51 1179.03Z" fill="#E5E5E5"/>
<path d="M1446.62 1179.03C1446.62 1181.06 1444.76 1183.1 1442.91 1183.1C1441.05 1183.1 1439.2 1181.06 1439.2 1179.03C1439.2 1176.99 1441.05 1174.95 1442.91 1174.95C1444.76 1174.95 1446.62 1176.99 1446.62 1179.03Z" fill="#E5E5E5"/>
<path d="M1525.72 1179.03C1525.72 1181.06 1523.87 1183.1 1522.01 1183.1C1520.16 1183.1 1518.3 1181.06 1518.3 1179.03C1518.3 1176.99 1520.16 1174.95 1522.01 1174.95C1523.87 1174.95 1525.72 1176.99 1525.72 1179.03Z" fill="#E5E5E5"/>
<path d="M1604.2 1179.03C1604.2 1181.06 1602.35 1183.1 1600.5 1183.1C1598.64 1183.1 1596.79 1181.06 1596.79 1179.03C1596.79 1176.99 1598.64 1174.95 1600.5 1174.95C1602.97 1174.95 1604.2 1176.99 1604.2 1179.03Z" fill="#E5E5E5"/>
<path d="M1683.31 1179.03C1683.31 1181.06 1681.45 1183.1 1679.6 1183.1C1677.75 1183.1 1675.89 1181.06 1675.89 1179.03C1675.89 1176.99 1677.75 1174.95 1679.6 1174.95C1681.45 1174.95 1683.31 1176.99 1683.31 1179.03Z" fill="#E5E5E5"/>
<path d="M1762.41 1179.03C1762.41 1181.06 1760.56 1183.1 1758.7 1183.1C1756.85 1183.1 1755 1181.06 1755 1179.03C1755 1176.99 1756.85 1174.95 1758.7 1174.95C1760.56 1174.95 1762.41 1176.99 1762.41 1179.03Z" fill="#E5E5E5"/>
<path d="M1841.51 1179.03C1841.51 1181.06 1839.66 1183.1 1837.81 1183.1C1835.95 1183.1 1834.1 1181.06 1834.1 1179.03C1834.1 1176.99 1835.95 1174.95 1837.81 1174.95C1839.66 1174.95 1841.51 1176.99 1841.51 1179.03Z" fill="#E5E5E5"/>
<path d="M1920 1179.03C1920 1181.06 1918.15 1183.1 1916.29 1183.1C1914.44 1183.1 1912.58 1181.06 1912.58 1179.03C1912.58 1176.99 1914.44 1174.95 1916.29 1174.95C1918.76 1174.95 1920 1176.99 1920 1179.03Z" fill="#E5E5E5"/>
<path d="M1051.72 1265.93C1051.72 1267.96 1049.86 1270 1048.01 1270C1046.15 1270 1044.3 1268.64 1044.3 1265.93C1044.3 1263.89 1046.15 1261.85 1048.01 1261.85C1049.86 1261.85 1051.72 1263.89 1051.72 1265.93Z" fill="#E5E5E5"/>
<path d="M1130.82 1265.93C1130.82 1267.96 1128.97 1270 1127.11 1270C1125.26 1270 1123.4 1267.96 1123.4 1265.93C1123.4 1263.89 1125.26 1261.85 1127.11 1261.85C1128.97 1261.85 1130.82 1263.89 1130.82 1265.93Z" fill="#E5E5E5"/>
<path d="M1209.92 1265.93C1209.92 1267.96 1208.07 1270 1206.22 1270C1204.36 1270 1202.51 1267.96 1202.51 1265.93C1202.51 1263.89 1204.36 1261.85 1206.22 1261.85C1208.07 1261.85 1209.92 1263.89 1209.92 1265.93Z" fill="#E5E5E5"/>
<path d="M1289.03 1265.93C1289.03 1267.96 1287.17 1270 1285.32 1270C1283.46 1270 1281.61 1267.96 1281.61 1265.93C1281.61 1263.89 1283.46 1261.85 1285.32 1261.85C1287.17 1261.85 1289.03 1263.89 1289.03 1265.93Z" fill="#E5E5E5"/>
<path d="M1367.51 1265.93C1367.51 1267.96 1365.66 1270 1363.8 1270C1361.95 1270 1360.1 1267.96 1360.1 1265.93C1360.1 1263.89 1361.95 1261.85 1363.8 1261.85C1365.66 1261.85 1367.51 1263.89 1367.51 1265.93Z" fill="#E5E5E5"/>
<path d="M1446.62 1265.93C1446.62 1267.96 1444.76 1270 1442.91 1270C1441.05 1270 1439.2 1267.96 1439.2 1265.93C1439.2 1263.89 1441.05 1261.85 1442.91 1261.85C1444.76 1261.85 1446.62 1263.89 1446.62 1265.93Z" fill="#E5E5E5"/>
<path d="M1525.72 1265.93C1525.72 1267.96 1523.87 1270 1522.01 1270C1520.16 1270 1518.3 1267.96 1518.3 1265.93C1518.3 1263.89 1520.16 1261.85 1522.01 1261.85C1523.87 1261.85 1525.72 1263.89 1525.72 1265.93Z" fill="#E5E5E5"/>
<path d="M1604.2 1265.93C1604.2 1267.96 1602.35 1270 1600.5 1270C1598.64 1270 1596.79 1267.96 1596.79 1265.93C1596.79 1263.89 1598.64 1261.85 1600.5 1261.85C1602.97 1261.85 1604.2 1263.89 1604.2 1265.93Z" fill="#E5E5E5"/>
<path d="M1683.31 1265.93C1683.31 1267.96 1681.45 1270 1679.6 1270C1677.75 1270 1675.89 1267.96 1675.89 1265.93C1675.89 1263.89 1677.75 1261.85 1679.6 1261.85C1681.45 1261.85 1683.31 1263.89 1683.31 1265.93Z" fill="#E5E5E5"/>
<path d="M1762.41 1265.93C1762.41 1267.96 1760.56 1270 1758.7 1270C1756.85 1270 1755 1267.96 1755 1265.93C1755 1263.89 1756.85 1261.85 1758.7 1261.85C1760.56 1261.85 1762.41 1263.89 1762.41 1265.93Z" fill="#E5E5E5"/>
<path d="M1841.51 1265.93C1841.51 1267.96 1839.66 1270 1837.81 1270C1835.95 1270 1834.1 1267.96 1834.1 1265.93C1834.1 1263.89 1835.95 1261.85 1837.81 1261.85C1839.66 1261.85 1841.51 1263.89 1841.51 1265.93Z" fill="#E5E5E5"/>
<path d="M1920 1265.93C1920 1267.96 1918.15 1270 1916.29 1270C1914.44 1270 1912.58 1267.96 1912.58 1265.93C1912.58 1263.89 1914.44 1261.85 1916.29 1261.85C1918.76 1261.85 1920 1263.89 1920 1265.93Z" fill="#E5E5E5"/>
</svg>
